<?xml-stylesheet type="text/css" href="svg.css"?><svg xmlns="http://www.w3.org/2000/svg" viewBox="0 0 312.00001 234.00003"><g transform="translate(-219 -415.362)"><path fill="#c66" d="M219 534.36218h75v98h-75zm158-118.99997h36v13h-36zM219 636.36218h75v13h-75zm23.5-220.99999a23.499998 23.5 0 0 0-1.6621.0605 23.499998 23.5 0 0 0-2.332.2832 23.499998 23.5 0 0 0-2.293.51367 23.499998 23.5 0 0 0-2.2285.74023 23.499998 23.5 0 0 0-2.1446.95899 23.499998 23.5 0 0 0-2.0371 1.16992 23.499998 23.5 0 0 0-1.9101 1.36523 23.499998 23.5 0 0 0-1.7657 1.55079 23.499998 23.5 0 0 0-1.6015 1.71875 23.499998 23.5 0 0 0-1.4199 1.87109 23.499998 23.5 0 0 0-1.2286 2.00195 23.499998 23.5 0 0 0-1.0214 2.11524 23.499998 23.5 0 0 0-.8067 2.20703 23.499998 23.5 0 0 0-.5801 2.27539 23.499998 23.5 0 0 0-.3515 2.32226 23.499998 23.5 0 0 0-.1172 2.34576v23.5h75v-22.25a11.749999 11.75 0 0 1 .059-1.17188 11.749999 11.75 0 0 1 .1758-1.16211 11.749999 11.75 0 0 1 .291-1.13672 11.749999 11.75 0 0 1 .4023-1.10351 11.749999 11.75 0 0 1 .5098-1.05859 11.749999 11.75 0 0 1 .6152-1 11.749999 11.75 0 0 1 .711-.93555 11.749999 11.75 0 0 1 .8008-.85938 11.749999 11.75 0 0 1 .8808-.77539 11.749999 11.75 0 0 1 .957-.68359 11.749999 11.75 0 0 1 1.0176-.58399 11.749999 11.75 0 0 1 1.0723-.48046 11.749999 11.75 0 0 1 1.1152-.36914 11.749999 11.75 0 0 1 1.1446-.25782 11.749999 11.75 0 0 1 1.166-.14062 11.749999 11.75 0 0 1 .832-.0312h67.25v-13h-130.5zm275.5 0v13h6.5c3.5899 0 6.5-2.91015 6.5-6.5s-2.9101-6.5-6.5-6.5zm0 221.00002v13h6.5c3.5899 0 6.5-2.9102 6.5-6.5 0-3.5899-2.9101-6.5-6.5-6.5zm-220-.00003h109v13H298z"/><g class="btnWater"><path fill="#fc6" d="M219 466.362192h75v30h-75z"/><text x="845.33032" y="92.362602" style="line-height:125%;-inkscape-font-specification:'League Gothic';text-align:end" font-size="16.25" font-family="League Gothic" letter-spacing="0" word-spacing="0" text-anchor="end" transform="translate(-555 400)"><tspan x="845.33032" y="92.362602">WATER</tspan></text></g><text x="514.6189" y="427.63858" fill="#f90" style="line-height:125%;-inkscape-font-specification:'League Gothic';text-align:end" font-size="16.25" font-family="League Gothic" letter-spacing="0" word-spacing="0" text-anchor="end"><tspan x="514.6189" y="427.63858">MONITORING SETTINGS</tspan></text><text x="514.6189" y="648.63855" fill="#f90" style="line-height:125%;-inkscape-font-specification:'League Gothic';text-align:end" font-size="16.25" font-family="League Gothic" letter-spacing="0" word-spacing="0" text-anchor="end"><tspan x="514.6189" y="648.63855">HOME AUTOMATION 1.00</tspan></text><g class="btnTemp"><path fill="#fc6" d="M219 500.36219h75v30h-75z"/><text x="845.2204" y="126.3626" style="line-height:125%;-inkscape-font-specification:'League Gothic';text-align:end" font-size="16.25" font-family="League Gothic" letter-spacing="0" word-spacing="0" text-anchor="end" transform="translate(-555 400)"><tspan x="845.2204" y="126.3626">TEMP</tspan></text></g><path fill="#99f" d="M298 466.36221h75v30h-75z"/><text x="369.22046" y="492.36221" style="line-height:125%;-inkscape-font-specification:'League Gothic';text-align:end" font-size="16.25" font-family="League Gothic" letter-spacing="0" word-spacing="0" text-anchor="end"><tspan x="369.22046" y="492.36221">DAY</tspan></text><path fill="#99f" d="M298 534.36218h40v30h-40z"/><text x="334.65613" y="560.23175" style="line-height:125%;-inkscape-font-specification:'League Gothic';text-align:end" font-size="16.25" font-family="League Gothic" letter-spacing="0" word-spacing="0" text-anchor="end"><tspan x="334.65613" y="560.23175">FROM</tspan></text><path fill="#99f" d="M501 534.36219v30h15c8.2843 0 15-6.71573 15-15s-6.7157-15-15-15z"/><g class="btnSave" transform="translate(-974 150)"><rect width="75" height="30" x="1351" y="452.36261" fill="#fc6" ry="15"/><text x="1410.1105" y="478.36261" style="line-height:125%;-inkscape-font-specification:'League Gothic';text-align:end" font-size="16.25" font-family="League Gothic" letter-spacing="0" word-spacing="0" text-anchor="end"><tspan x="1410.1105" y="478.36261">SAVE</tspan></text></g><g class="btnMonday"><path fill="#fc6" d="M377 466.3622h20v30h-20z" class="btnMondayOn"/><path fill="#c30" d="M377 466.3622h20v30h-20z" class="btnMondayOff"/><text x="948.06146" y="342.2326" style="line-height:125%;-inkscape-font-specification:'League Gothic';text-align:end" font-size="16.25" font-family="League Gothic" letter-spacing="0" word-spacing="0" text-anchor="end" transform="translate(-555 150)"><tspan x="948.06146" y="342.2326">M</tspan></text></g><g class="btnTuesday"><path fill="#fc6" d="M399 466.3622h20v30h-20z" class="btnTuesdayOn"/><path fill="#c30" d="M399 466.3622h20v30h-20z" class="btnTuesdayOff"/><text x="970.06146" y="342.2326" style="line-height:125%;-inkscape-font-specification:'League Gothic';text-align:end" font-size="16.25" font-family="League Gothic" letter-spacing="0" word-spacing="0" text-anchor="end" transform="translate(-555 150)"><tspan x="970.06146" y="342.2326">T</tspan></text></g><g class="btnWednesday"><path fill="#fc6" d="M421 466.3622h20v30h-20z" class="btnWednesdayOn"/><path fill="#c30" d="M421 466.3622h20v30h-20z" class="btnWednesdayOff"/><text x="992.06152" y="342.2326" style="line-height:125%;-inkscape-font-specification:'League Gothic';text-align:end" font-size="16.25" font-family="League Gothic" letter-spacing="0" word-spacing="0" text-anchor="end" transform="translate(-555 150)"><tspan x="992.06152" y="342.2326">W</tspan></text></g><g class="btnThursday"><path fill="#fc6" d="M443 466.3622h20v30h-20z" class="btnThursdayOn"/><path fill="#c30" d="M443 466.3622h20v30h-20z" class="btnThursdayOff"/><text x="1014.0615" y="342.2326" style="line-height:125%;-inkscape-font-specification:'League Gothic';text-align:end" font-size="16.25" font-family="League Gothic" letter-spacing="0" word-spacing="0" text-anchor="end" transform="translate(-555 150)"><tspan x="1014.0615" y="342.2326">T</tspan></text></g><g class="btnFriday"><path fill="#fc6" d="M465 466.3622h20v30h-20z" class="btnFridayOn"/><path fill="#c30" d="M465 466.3622h20v30h-20z" class="btnFridayOff"/><text x="1036.0615" y="342.2326" style="line-height:125%;-inkscape-font-specification:'League Gothic';text-align:end" font-size="16.25" font-family="League Gothic" letter-spacing="0" word-spacing="0" text-anchor="end" transform="translate(-555 150)"><tspan x="1036.0615" y="342.2326">F</tspan></text></g><g class="btnSaturday"><path fill="#fc6" d="M489 466.3622h20v30h-20z" class="btnSaturdayOn"/><path fill="#c30" d="M489 466.3622h20v30h-20z" class="btnSaturdayOff"/><text x="1060.0615" y="342.2326" style="line-height:125%;-inkscape-font-specification:'League Gothic';text-align:end" font-size="16.25" font-family="League Gothic" letter-spacing="0" word-spacing="0" text-anchor="end" transform="translate(-555 150)"><tspan x="1060.0615" y="342.2326">S</tspan></text></g><g class="btnSunday"><path fill="#fc6" d="M511 466.3622h20v30h-20z" class="btnSundayOn"/><path fill="#c30" d="M511 466.3622h20v30h-20z" class="btnSundayOff"/><text x="1082.0615" y="342.2326" style="line-height:125%;-inkscape-font-specification:'League Gothic';text-align:end" font-size="16.25" font-family="League Gothic" letter-spacing="0" word-spacing="0" text-anchor="end" transform="translate(-555 150)"><tspan x="1082.0615" y="342.2326">S</tspan></text></g><text x="369.65503" y="563.0722" fill="#f96" class="txtFrom" style="line-height:125%;-inkscape-font-specification:'League Gothic';text-align:center" font-size="36.25" font-family="League Gothic" letter-spacing="0" word-spacing="0" text-anchor="middle"><tspan x="369.65503" y="563.0722">00:00</tspan></text><g class="btnFromHUp"><path fill="#fc6" d="M354 510.36177a11 11 0 0 0-11 11v11h22v-11a11 11 0 0 0-11-11z"/><text x="1258.1356" y="380.28217" style="line-height:125%;-inkscape-font-specification:'League Gothic, Normal';text-align:end" font-size="10" font-family="League Gothic" letter-spacing="0" word-spacing="0" text-anchor="end" transform="translate(-895 150)"><tspan x="1258.1356" y="380.28217">UP</tspan></text></g><g class="btnFromMUp"><path fill="#fc6" d="M385 510.36177a11 11 0 0 0-11 11v11h22v-11a11 11 0 0 0-11-11z"/><text x="1289.1356" y="380.28217" style="line-height:125%;-inkscape-font-specification:'League Gothic, Normal';text-align:end" font-size="10" font-family="League Gothic" letter-spacing="0" word-spacing="0" text-anchor="end" transform="translate(-895 150)"><tspan x="1289.1356" y="380.28217">UP</tspan></text></g><g class="btnFromHDown"><path fill="#fc6" d="M354 588.36177a11 11 0 0 1-11-11v-11h22v11a11 11 0 0 1-11 11z"/><text x="1258.3953" y="425.79218" style="line-height:125%;-inkscape-font-specification:'League Gothic, Normal';text-align:end" font-size="10" font-family="League Gothic" letter-spacing="0" word-spacing="0" text-anchor="end" transform="translate(-895 150)"><tspan x="1258.3953" y="425.79218">DOWN</tspan></text></g><g class="btnFromMDown"><path fill="#fc6" d="M385 588.36177a11 11 0 0 1-11-11v-11h22v11a11 11 0 0 1-11 11z"/><text x="1289.3953" y="425.79218" style="line-height:125%;-inkscape-font-specification:'League Gothic, Normal';text-align:end" font-size="10" font-family="League Gothic" letter-spacing="0" word-spacing="0" text-anchor="end" transform="translate(-895 150)"><tspan x="1289.3953" y="425.79218">DOWN</tspan></text></g><text x="470.65503" y="563.0722" fill="#f96" class="txtTo" style="line-height:125%;-inkscape-font-specification:'League Gothic';text-align:center" font-size="36.25" font-family="League Gothic" letter-spacing="0" word-spacing="0" text-anchor="middle"><tspan x="470.65503" y="563.0722">00:00</tspan></text><path fill="#99f" d="M401 534.36218h38v30h-38z"/><text x="435.52832" y="560.23218" style="line-height:125%;-inkscape-font-specification:'League Gothic';text-align:end" font-size="16.25" font-family="League Gothic" letter-spacing="0" word-spacing="0" text-anchor="end"><tspan x="435.52832" y="560.23218">TO</tspan></text><g class="btnToHUp"><path fill="#fc6" d="M455 510.36177a11 11 0 0 0-11 11v11h22v-11a11 11 0 0 0-11-11z"/><text x="1359.1356" y="380.28217" style="line-height:125%;-inkscape-font-specification:'League Gothic, Normal';text-align:end" font-size="10" font-family="League Gothic" letter-spacing="0" word-spacing="0" text-anchor="end" transform="translate(-895 150)"><tspan x="1359.1356" y="380.28217">UP</tspan></text></g><g class="btnToMUp"><path fill="#fc6" d="M486 510.36177a11 11 0 0 0-11 11v11h22v-11a11 11 0 0 0-11-11z"/><text x="1390.1356" y="380.28217" style="line-height:125%;-inkscape-font-specification:'League Gothic, Normal';text-align:end" font-size="10" font-family="League Gothic" letter-spacing="0" word-spacing="0" text-anchor="end" transform="translate(-895 150)"><tspan x="1390.1356" y="380.28217">UP</tspan></text></g><g class="btnToHDown"><path fill="#fc6" d="M455 588.36177a11 11 0 0 1-11-11v-11h22v11a11 11 0 0 1-11 11z"/><text x="1359.3953" y="425.79218" style="line-height:125%;-inkscape-font-specification:'League Gothic, Normal';text-align:end" font-size="10" font-family="League Gothic" letter-spacing="0" word-spacing="0" text-anchor="end" transform="translate(-895 150)"><tspan x="1359.3953" y="425.79218">DOWN</tspan></text></g><g class="btnToMDown"><path fill="#fc6" d="M486 588.36177a11 11 0 0 1-11-11v-11h22v11a11 11 0 0 1-11 11z"/><text x="1390.3953" y="425.79218" style="line-height:125%;-inkscape-font-specification:'League Gothic, Normal';text-align:end" font-size="10" font-family="League Gothic" letter-spacing="0" word-spacing="0" text-anchor="end" transform="translate(-895 150)"><tspan x="1390.3953" y="425.79218">DOWN</tspan></text></g><rect width="233" height="30" x="298" y="432.36179" fill="#99f" ry="15"/><text x="515.50525" y="458.23178" style="line-height:125%;-inkscape-font-specification:'League Gothic';text-align:end" font-size="16.25" font-family="League Gothic" letter-spacing="0" word-spacing="0" text-anchor="end"><tspan x="515.50525" y="458.23178">AUTOMATIC DISABLE PERIOD</tspan></text></g></svg>