<?xml-stylesheet type="text/css" href="svg.css"?><svg xmlns="http://www.w3.org/2000/svg" viewBox="0 0 312.00001 234.00003"><path fill="#c66" d="M.000004 119h75v98h-75zM158 0h110v13H158zM.000004 221h75v13h-75zM23.500001 0a23.499998 23.5 0 0 0-1.6621.0605 23.499998 23.5 0 0 0-2.332.2832 23.499998 23.5 0 0 0-2.293.51367 23.499998 23.5 0 0 0-2.2285.74023 23.499998 23.5 0 0 0-2.1446.95899 23.499998 23.5 0 0 0-2.0371 1.16992 23.499998 23.5 0 0 0-1.910099 1.36523 23.499998 23.5 0 0 0-1.7657 1.55079 23.499998 23.5 0 0 0-1.6015 1.71875 23.499998 23.5 0 0 0-1.4199 1.87109 23.499998 23.5 0 0 0-1.2286 2.00195 23.499998 23.5 0 0 0-1.0214 2.11524 23.499998 23.5 0 0 0-.8067 2.20703 23.499998 23.5 0 0 0-.580101 2.27539 23.499998 23.5 0 0 0-.3515 2.32226A23.499998 23.5 0 0 0 .000001 23.5V47H75V24.75a11.749999 11.75 0 0 1 .059-1.17188 11.749999 11.75 0 0 1 .1758-1.16211 11.749999 11.75 0 0 1 .291-1.13672 11.749999 11.75 0 0 1 .4023-1.10351 11.749999 11.75 0 0 1 .5098-1.05859 11.749999 11.75 0 0 1 .6152-1 11.749999 11.75 0 0 1 .711-.93555 11.749999 11.75 0 0 1 .8008-.85938 11.749999 11.75 0 0 1 .8808-.77539 11.749999 11.75 0 0 1 .957-.68359 11.749999 11.75 0 0 1 1.0176-.58399 11.749999 11.75 0 0 1 1.0723-.48046 11.749999 11.75 0 0 1 1.1152-.36914 11.749999 11.75 0 0 1 1.1446-.25782 11.749999 11.75 0 0 1 1.166-.14062 11.749999 11.75 0 0 1 .832-.0312h67.25v-13H23.500401zM299 0v13h6.5c3.5899 0 6.5-2.91015 6.5-6.5S309.0899 0 305.5 0zm0 221.00002v13h6.5c3.5899 0 6.5-2.9102 6.5-6.5 0-3.5899-2.9101-6.5-6.5-6.5zM79 221h109v13H79z"/><g class="btnWater"><path fill="#fc6" d="M0 51.00001h75v30H0z"/><text x="845.33032" y="342.36261" style="line-height:125%;-inkscape-font-specification:'League Gothic';text-align:end" font-size="16.25" font-family="League Gothic" letter-spacing="0" word-spacing="0" text-anchor="end" transform="translate(-774 -265.363)"><tspan x="845.33032" y="342.36261">WATER</tspan></text></g><path fill="#99f" d="M203 51v30h15c8.2843 0 15-6.71573 15-15s-6.7157-15-15-15z"/><text x="275.24814" y="480.7865" fill="#f96" class="txtTemp" style="line-height:125%;-inkscape-font-specification:'League Gothic';text-align:end" font-size="36.25" font-family="League Gothic" letter-spacing="0" word-spacing="0" text-anchor="end" transform="translate(-75.43 -401.076)"><tspan x="275.24814" y="480.7865">99.9</tspan></text><path fill="#99f" d="M78.99857 51.00048h75v30h-75z"/><text x="371.04745" y="413.35284" fill="#f90" style="line-height:125%;-inkscape-font-specification:'League Gothic';text-align:end" font-size="16.25" font-family="League Gothic" letter-spacing="0" word-spacing="0" text-anchor="end" transform="translate(-75.43 -401.076)"><tspan x="371.04745" y="413.35284">TEMP</tspan></text><text x="371.04745" y="634.35284" fill="#f90" style="line-height:125%;-inkscape-font-specification:'League Gothic';text-align:end" font-size="16.25" font-family="League Gothic" letter-spacing="0" word-spacing="0" text-anchor="end" transform="translate(-75.43 -401.076)"><tspan x="371.04745" y="634.35284">HOME AUTOMATION 1.00</tspan></text><g class="btnTemp"><path fill="#f90" d="M0 85.00001h75v30H0z"/><text x="845.2204" y="376.36261" style="line-height:125%;-inkscape-font-specification:'League Gothic';text-align:end" font-size="16.25" font-family="League Gothic" letter-spacing="0" word-spacing="0" text-anchor="end" transform="translate(-774 -265.363)"><tspan x="845.2204" y="376.36261">TEMP</tspan></text></g><text x="225.64903" y="478.07648" style="line-height:125%;-inkscape-font-specification:'League Gothic';text-align:end" font-size="16.25" font-family="League Gothic" letter-spacing="0" word-spacing="0" text-anchor="end" transform="translate(-75.43 -401.076)"><tspan x="225.64903" y="478.07648">TEMP</tspan></text><path fill="#99f" d="M78.99857 119.00048h75v30h-75zm123.99999 0h30v64h-30z"/><text x="275.24814" y="548.7865" fill="#f96" class="txtSetTemp" style="line-height:125%;-inkscape-font-specification:'League Gothic';text-align:end" font-size="36.25" font-family="League Gothic" letter-spacing="0" word-spacing="0" text-anchor="end" transform="translate(-75.43 -401.076)"><tspan x="275.24814" y="548.7865">99.9</tspan></text><text x="225.64903" y="546.07648" style="line-height:125%;-inkscape-font-specification:'League Gothic';text-align:end" font-size="16.25" font-family="League Gothic" letter-spacing="0" word-spacing="0" text-anchor="end" transform="translate(-75.43 -401.076)"><tspan x="225.64903" y="546.07648">SET</tspan></text><g class="btnUp"><path fill="#fc6" d="M297 119.00001c8.31 0 15 6.69 15 15 0 8.31-6.69 15-15 15h-60v-30h60z"/><text x="1071.2205" y="410.36261" style="line-height:125%;-inkscape-font-specification:'League Gothic';text-align:end" font-size="16.25" font-family="League Gothic" letter-spacing="0" word-spacing="0" text-anchor="end" transform="translate(-774 -265.363)"><tspan x="1071.2205" y="410.36261">UP</tspan></text></g><g class="btnDown"><path fill="#fc6" d="M297 153.00002c8.31 0 15 6.69 15 15 0 8.31-6.69 15-15 15h-60v-30h60z"/><text x="1071.2205" y="444.2326" style="line-height:125%;-inkscape-font-specification:'League Gothic';text-align:end" font-size="16.25" font-family="League Gothic" letter-spacing="0" word-spacing="0" text-anchor="end" transform="translate(-774 -265.363)"><tspan x="1071.2205" y="444.2326">DOWN</tspan></text></g><path fill="#99f" d="M202.99857 85.00048v30h15c8.2843 0 15-6.71573 15-15s-6.7157-15-15-15z"/><text x="275.24814" y="514.7865" fill="#f96" class="txtHumidity" style="line-height:125%;-inkscape-font-specification:'League Gothic';text-align:end" font-size="36.25" font-family="League Gothic" letter-spacing="0" word-spacing="0" text-anchor="end" transform="translate(-75.43 -401.076)"><tspan x="275.24814" y="514.7865">99.9</tspan></text><path fill="#99f" d="M78.99857 85.00048h75v30h-75z"/><text x="225.64903" y="512.07648" style="line-height:125%;-inkscape-font-specification:'League Gothic';text-align:end" font-size="16.25" font-family="League Gothic" letter-spacing="0" word-spacing="0" text-anchor="end" transform="translate(-75.43 -401.076)"><tspan x="225.64903" y="512.07648">HUMIDITY</tspan></text></svg>