<?xml version="1.0" encoding="UTF-8" standalone="no"?>
<svg
   xmlns:dc="http://purl.org/dc/elements/1.1/"
   xmlns:cc="http://creativecommons.org/ns#"
   xmlns:rdf="http://www.w3.org/1999/02/22-rdf-syntax-ns#"
   xmlns:svg="http://www.w3.org/2000/svg"
   xmlns="http://www.w3.org/2000/svg"
   version="1.1"
   id="svg3929"
   viewBox="0 0 312.00001 234.00003"
   height="66.040009mm"
   width="88.053337mm">
  <defs
     id="defs3931" />
  <metadata
     id="metadata3934">
    <rdf:RDF>
      <cc:Work
         rdf:about="">
        <dc:format>image/svg+xml</dc:format>
        <dc:type
           rdf:resource="http://purl.org/dc/dcmitype/StillImage" />
        <dc:title></dc:title>
      </cc:Work>
    </rdf:RDF>
  </metadata>
  <g
     transform="translate(-75.42857,-401.07648)"
     id="layer1">
    <rect
       y="520.07648"
       x="75.428574"
       height="98"
       width="75"
       id="rect4584"
       style="fill:#cc6666;fill-opacity:1;stroke:none;stroke-width:0.35433072;stroke-linecap:butt;stroke-miterlimit:4;stroke-dasharray:none;stroke-dashoffset:0;stroke-opacity:1" />
    <rect
       y="401.07648"
       x="233.42857"
       height="13"
       width="110"
       id="rect4586"
       style="fill:#cc6666;fill-opacity:1;stroke:none;stroke-width:0.35433072;stroke-linecap:butt;stroke-miterlimit:4;stroke-dasharray:none;stroke-dashoffset:0;stroke-opacity:1" />
    <rect
       style="fill:#cc6666;fill-opacity:1;stroke:none;stroke-width:0.35433072;stroke-linecap:butt;stroke-miterlimit:4;stroke-dasharray:none;stroke-dashoffset:0;stroke-opacity:1"
       id="rect4588"
       width="75"
       height="13"
       x="75.428574"
       y="622.07648" />
    <path
       style="fill:#cc6666;fill-opacity:1;stroke:none;stroke-width:0.35433072;stroke-linecap:butt;stroke-miterlimit:4;stroke-dasharray:none;stroke-dashoffset:0;stroke-opacity:1"
       d="m 98.928571,401.07648 a 23.499998,23.5 0 0 0 -1.6621,0.0605 23.499998,23.5 0 0 0 -2.332,0.2832 23.499998,23.5 0 0 0 -2.293,0.51367 23.499998,23.5 0 0 0 -2.2285,0.74023 23.499998,23.5 0 0 0 -2.1446,0.95899 23.499998,23.5 0 0 0 -2.0371,1.16992 23.499998,23.5 0 0 0 -1.910099,1.36523 23.499998,23.5 0 0 0 -1.7657,1.55079 23.499998,23.5 0 0 0 -1.6015,1.71875 23.499998,23.5 0 0 0 -1.4199,1.87109 23.499998,23.5 0 0 0 -1.2286,2.00195 23.499998,23.5 0 0 0 -1.0214,2.11524 23.499998,23.5 0 0 0 -0.8067,2.20703 23.499998,23.5 0 0 0 -0.580101,2.27539 23.499998,23.5 0 0 0 -0.3515,2.32226 23.499998,23.5 0 0 0 -0.1172,2.34576 l 0,23.5 23.5,0 51.499999,0 0,-22.25 a 11.749999,11.75 0 0 1 0.059,-1.17188 11.749999,11.75 0 0 1 0.1758,-1.16211 11.749999,11.75 0 0 1 0.291,-1.13672 11.749999,11.75 0 0 1 0.4023,-1.10351 11.749999,11.75 0 0 1 0.5098,-1.05859 11.749999,11.75 0 0 1 0.6152,-1 11.749999,11.75 0 0 1 0.711,-0.93555 11.749999,11.75 0 0 1 0.8008,-0.85938 11.749999,11.75 0 0 1 0.8808,-0.77539 11.749999,11.75 0 0 1 0.957,-0.68359 11.749999,11.75 0 0 1 1.0176,-0.58399 11.749999,11.75 0 0 1 1.0723,-0.48046 11.749999,11.75 0 0 1 1.1152,-0.36914 11.749999,11.75 0 0 1 1.1446,-0.25782 11.749999,11.75 0 0 1 1.166,-0.14062 11.749999,11.75 0 0 1 0.832,-0.0312 l 67.25,0 0,-13 -130.499999,0 z"
       id="path4590" />
    <path
       style="fill:#cc6666;fill-opacity:1;stroke:none;stroke-width:0.35433072;stroke-linecap:butt;stroke-miterlimit:4;stroke-dasharray:none;stroke-dashoffset:0;stroke-opacity:1"
       d="m 374.42857,401.07648 c 0,4.33333 0,8.66667 0,13 l 6.5,0 c 3.5899,0 6.5,-2.91015 6.5,-6.5 0,-3.58985 -2.9101,-6.5 -6.5,-6.5 z"
       id="path4592" />
    <path
       id="path4594"
       d="m 374.42857,622.0765 c 0,4.3333 0,8.6666 0,13 l 6.5,0 c 3.5899,0 6.5,-2.9102 6.5,-6.5 0,-3.5899 -2.9101,-6.5 -6.5,-6.5 z"
       style="fill:#cc6666;fill-opacity:1;stroke:none;stroke-width:0.35433072;stroke-linecap:butt;stroke-miterlimit:4;stroke-dasharray:none;stroke-dashoffset:0;stroke-opacity:1" />
    <rect
       y="622.07648"
       x="154.42857"
       height="13"
       width="109"
       id="rect4596"
       style="fill:#cc6666;fill-opacity:1;stroke:none;stroke-width:0.35433072;stroke-linecap:butt;stroke-miterlimit:4;stroke-dasharray:none;stroke-dashoffset:0;stroke-opacity:1" />
    <g
       class="btnWater"
       id="g6049"
       transform="translate(-698.57143,135.71388)">
      <rect
         y="316.36261"
         x="774"
         height="30"
         width="75"
         id="rect4600"
         style="fill:#ffcc66;fill-opacity:1;stroke:none;stroke-width:0.35433072;stroke-linecap:butt;stroke-miterlimit:4;stroke-dasharray:none;stroke-dashoffset:0;stroke-opacity:1" />
      <text
         xml:space="preserve"
         style="font-style:normal;font-variant:normal;font-weight:normal;font-stretch:normal;font-size:16.25px;line-height:125%;font-family:'League Gothic';-inkscape-font-specification:'League Gothic';text-align:end;letter-spacing:0px;word-spacing:0px;text-anchor:end;fill:#000000;fill-opacity:1;stroke:none;stroke-width:1px;stroke-linecap:butt;stroke-linejoin:miter;stroke-opacity:1"
         x="845.33032"
         y="342.36261"
         id="text4602"><tspan
           x="845.33032"
           y="342.36261"
           id="tspan4604">WATER</tspan></text>
    </g>
    <path
       style="fill:#9999ff;fill-opacity:1;stroke:none;stroke-width:0.35433072;stroke-linecap:butt;stroke-miterlimit:4;stroke-dasharray:none;stroke-dashoffset:0;stroke-opacity:1"
       d="m 278.42857,452.07648 c 0,10 0,20 0,30 l 15,0 c 8.2843,0 15,-6.71573 15,-15 0,-8.28427 -6.7157,-15 -15,-15 z"
       id="path4606" />
    <text
       class="txtTemp"
       xml:space="preserve"
       style="font-style:normal;font-variant:normal;font-weight:normal;font-stretch:normal;font-size:36.25px;line-height:125%;font-family:'League Gothic';-inkscape-font-specification:'League Gothic';text-align:end;letter-spacing:0px;word-spacing:0px;writing-mode:lr-tb;text-anchor:end;fill:#ff9966;fill-opacity:1;stroke:none;stroke-width:1px;stroke-linecap:butt;stroke-linejoin:miter;stroke-opacity:1"
       x="275.24814"
       y="480.7865"
       id="text3896"><tspan
         x="275.24814"
         y="480.7865"
         id="tspan4610">99.9</tspan></text>
    <rect
       style="fill:#9999ff;fill-opacity:1;stroke:none;stroke-width:0.35433072;stroke-linecap:butt;stroke-miterlimit:4;stroke-dasharray:none;stroke-dashoffset:0;stroke-opacity:1"
       id="rect4612"
       width="75"
       height="30"
       x="154.42857"
       y="452.07648" />
    <text
       id="text4614"
       y="413.35284"
       x="371.04745"
       style="font-style:normal;font-variant:normal;font-weight:normal;font-stretch:normal;font-size:16.25px;line-height:125%;font-family:'League Gothic';-inkscape-font-specification:'League Gothic';text-align:end;letter-spacing:0px;word-spacing:0px;text-anchor:end;fill:#ff9900;fill-opacity:1;stroke:none;stroke-width:1px;stroke-linecap:butt;stroke-linejoin:miter;stroke-opacity:1"
       xml:space="preserve"><tspan
         id="tspan4616"
         y="413.35284"
         x="371.04745">TEMP</tspan></text>
    <text
       xml:space="preserve"
       style="font-style:normal;font-variant:normal;font-weight:normal;font-stretch:normal;font-size:16.25px;line-height:125%;font-family:'League Gothic';-inkscape-font-specification:'League Gothic';text-align:end;letter-spacing:0px;word-spacing:0px;text-anchor:end;fill:#ff9900;fill-opacity:1;stroke:none;stroke-width:1px;stroke-linecap:butt;stroke-linejoin:miter;stroke-opacity:1"
       x="371.04745"
       y="634.35284"
       id="text4618"><tspan
         x="371.04745"
         y="634.35284"
         id="tspan4620">HOME AUTOMATION 1.00</tspan></text>
    <g
       class="btnTemp"
       id="g6051"
       transform="translate(-698.57143,135.71388)">
      <rect
         y="350.36261"
         x="774"
         height="30"
         width="75"
         id="rect4624"
         style="fill:#ff9900;fill-opacity:1;stroke:none;stroke-width:0.35433072;stroke-linecap:butt;stroke-miterlimit:4;stroke-dasharray:none;stroke-dashoffset:0;stroke-opacity:1" />
      <text
         id="text4626"
         y="376.36261"
         x="845.2204"
         style="font-style:normal;font-variant:normal;font-weight:normal;font-stretch:normal;font-size:16.25px;line-height:125%;font-family:'League Gothic';-inkscape-font-specification:'League Gothic';text-align:end;letter-spacing:0px;word-spacing:0px;text-anchor:end;fill:#000000;fill-opacity:1;stroke:none;stroke-width:1px;stroke-linecap:butt;stroke-linejoin:miter;stroke-opacity:1"
         xml:space="preserve"><tspan
           id="tspan4628"
           y="376.36261"
           x="845.2204">TEMP</tspan></text>
    </g>
    <text
       id="text4630"
       y="478.07648"
       x="225.64903"
       style="font-style:normal;font-variant:normal;font-weight:normal;font-stretch:normal;font-size:16.25px;line-height:125%;font-family:'League Gothic';-inkscape-font-specification:'League Gothic';text-align:end;letter-spacing:0px;word-spacing:0px;text-anchor:end;fill:#000000;fill-opacity:1;stroke:none;stroke-width:1px;stroke-linecap:butt;stroke-linejoin:miter;stroke-opacity:1"
       xml:space="preserve"><tspan
         id="tspan4632"
         y="478.07648"
         x="225.64903">TEMP</tspan></text>
    <rect
       y="520.07648"
       x="154.42857"
       height="30"
       width="75"
       id="rect4634"
       style="fill:#9999ff;fill-opacity:1;stroke:none;stroke-width:0.35433072;stroke-linecap:butt;stroke-miterlimit:4;stroke-dasharray:none;stroke-dashoffset:0;stroke-opacity:1" />
    <rect
       y="520.07648"
       x="278.42856"
       height="64"
       width="30"
       id="rect4636"
       style="fill:#9999ff;fill-opacity:1;stroke:none;stroke-width:0.35433072;stroke-linecap:butt;stroke-miterlimit:4;stroke-dasharray:none;stroke-dashoffset:0;stroke-opacity:1" />
    <text
       class="txtSetTemp"
       id="text3885"
       y="548.7865"
       x="275.24814"
       style="font-style:normal;font-variant:normal;font-weight:normal;font-stretch:normal;font-size:36.25px;line-height:125%;font-family:'League Gothic';-inkscape-font-specification:'League Gothic';text-align:end;letter-spacing:0px;word-spacing:0px;writing-mode:lr-tb;text-anchor:end;fill:#ff9966;fill-opacity:1;stroke:none;stroke-width:1px;stroke-linecap:butt;stroke-linejoin:miter;stroke-opacity:1"
       xml:space="preserve"><tspan
         id="tspan4640"
         y="548.7865"
         x="275.24814">99.9</tspan></text>
    <text
       id="text4642"
       y="546.07648"
       x="225.64903"
       style="font-style:normal;font-variant:normal;font-weight:normal;font-stretch:normal;font-size:16.25px;line-height:125%;font-family:'League Gothic';-inkscape-font-specification:'League Gothic';text-align:end;letter-spacing:0px;word-spacing:0px;text-anchor:end;fill:#000000;fill-opacity:1;stroke:none;stroke-width:1px;stroke-linecap:butt;stroke-linejoin:miter;stroke-opacity:1"
       xml:space="preserve"><tspan
         id="tspan4644"
         y="546.07648"
         x="225.64903">SET</tspan></text>
    <g
       class="btnUp"
       id="g3902"
       transform="translate(-698.57143,135.71388)">
      <path
         style="fill:#ffcc66;fill-opacity:1;stroke:none;stroke-width:0.35433072;stroke-linecap:butt;stroke-miterlimit:4;stroke-dasharray:none;stroke-dashoffset:0;stroke-opacity:1"
         d="m 1071,384.36261 c 8.31,0 15,6.69 15,15 0,8.31 -6.69,15 -15,15 l -20,0 -25,0 -15,0 0,-15 0,-15 15,0 25,0 20,0 z"
         id="path4648" />
      <text
         id="text4650"
         y="410.36261"
         x="1071.2205"
         style="font-style:normal;font-variant:normal;font-weight:normal;font-stretch:normal;font-size:16.25px;line-height:125%;font-family:'League Gothic';-inkscape-font-specification:'League Gothic';text-align:end;letter-spacing:0px;word-spacing:0px;text-anchor:end;fill:#000000;fill-opacity:1;stroke:none;stroke-width:1px;stroke-linecap:butt;stroke-linejoin:miter;stroke-opacity:1"
         xml:space="preserve"><tspan
           id="tspan4652"
           y="410.36261"
           x="1071.2205">UP</tspan></text>
    </g>
    <g
       class="btnDown"
       id="g6284"
       transform="translate(-698.57143,135.71388)">
      <path
         id="path4656"
         d="m 1071,418.36262 c 8.31,0 15,6.69 15,15 0,8.31 -6.69,15 -15,15 l -20,0 -25,0 -15,0 0,-15 0,-15 15,0 25,0 20,0 z"
         style="fill:#ffcc66;fill-opacity:1;stroke:none;stroke-width:0.35433072;stroke-linecap:butt;stroke-miterlimit:4;stroke-dasharray:none;stroke-dashoffset:0;stroke-opacity:1" />
      <text
         xml:space="preserve"
         style="font-style:normal;font-variant:normal;font-weight:normal;font-stretch:normal;font-size:16.25px;line-height:125%;font-family:'League Gothic';-inkscape-font-specification:'League Gothic';text-align:end;letter-spacing:0px;word-spacing:0px;text-anchor:end;fill:#000000;fill-opacity:1;stroke:none;stroke-width:1px;stroke-linecap:butt;stroke-linejoin:miter;stroke-opacity:1"
         x="1071.2205"
         y="444.2326"
         id="text4658"><tspan
           x="1071.2205"
           y="444.2326"
           id="tspan4660">DOWN</tspan></text>
    </g>
    <path
       id="path4662"
       d="m 278.42857,486.07648 c 0,10 0,20 0,30 l 15,0 c 8.2843,0 15,-6.71573 15,-15 0,-8.28427 -6.7157,-15 -15,-15 z"
       style="fill:#9999ff;fill-opacity:1;stroke:none;stroke-width:0.35433072;stroke-linecap:butt;stroke-miterlimit:4;stroke-dasharray:none;stroke-dashoffset:0;stroke-opacity:1" />
    <text
       class="txtHumidity"
       id="text3898"
       y="514.7865"
       x="275.24814"
       style="font-style:normal;font-variant:normal;font-weight:normal;font-stretch:normal;font-size:36.25px;line-height:125%;font-family:'League Gothic';-inkscape-font-specification:'League Gothic';text-align:end;letter-spacing:0px;word-spacing:0px;writing-mode:lr-tb;text-anchor:end;fill:#ff9966;fill-opacity:1;stroke:none;stroke-width:1px;stroke-linecap:butt;stroke-linejoin:miter;stroke-opacity:1"
       xml:space="preserve"><tspan
         id="tspan4666"
         y="514.7865"
         x="275.24814">99.9</tspan></text>
    <rect
       y="486.07648"
       x="154.42857"
       height="30"
       width="75"
       id="rect4668"
       style="fill:#9999ff;fill-opacity:1;stroke:none;stroke-width:0.35433072;stroke-linecap:butt;stroke-miterlimit:4;stroke-dasharray:none;stroke-dashoffset:0;stroke-opacity:1" />
    <text
       xml:space="preserve"
       style="font-style:normal;font-variant:normal;font-weight:normal;font-stretch:normal;font-size:16.25px;line-height:125%;font-family:'League Gothic';-inkscape-font-specification:'League Gothic';text-align:end;letter-spacing:0px;word-spacing:0px;text-anchor:end;fill:#000000;fill-opacity:1;stroke:none;stroke-width:1px;stroke-linecap:butt;stroke-linejoin:miter;stroke-opacity:1"
       x="225.64903"
       y="512.07648"
       id="text4670"><tspan
         x="225.64903"
         y="512.07648"
         id="tspan4672">HUMIDITY</tspan></text>
  </g>
</svg>
