<?xml-stylesheet type="text/css" href="svg.css"?><svg xmlns="http://www.w3.org/2000/svg" viewBox="0 0 312 234" height="66" width="88"><g transform="translate(-75.42857 -401.07648)"><rect y="520.1" x="75.4" height="98" width="75" style="fill:#c66;stroke-width:0.35433072"/><rect y="401.1" x="233.4" height="13" width="110" style="fill:#c66;stroke-width:0.35433072"/><rect width="75" height="13" x="75.4" y="622.1" style="fill:#c66;stroke-width:0.35433072"/><path d="m98.9 401.1a23.5 23.5 0 0 0-1.7 0.1 23.5 23.5 0 0 0-2.3 0.3 23.5 23.5 0 0 0-2.3 0.5 23.5 23.5 0 0 0-2.2 0.7 23.5 23.5 0 0 0-2.1 1 23.5 23.5 0 0 0-2 1.2 23.5 23.5 0 0 0-1.9 1.4 23.5 23.5 0 0 0-1.8 1.6 23.5 23.5 0 0 0-1.6 1.7 23.5 23.5 0 0 0-1.4 1.9 23.5 23.5 0 0 0-1.2 2 23.5 23.5 0 0 0-1 2.1 23.5 23.5 0 0 0-0.8 2.2 23.5 23.5 0 0 0-0.6 2.3 23.5 23.5 0 0 0-0.4 2.3 23.5 23.5 0 0 0-0.1 2.3l0 23.5 23.5 0 51.5 0 0-22.2a11.7 11.8 0 0 1 0.1-1.2 11.7 11.8 0 0 1 0.2-1.2 11.7 11.8 0 0 1 0.3-1.1 11.7 11.8 0 0 1 0.4-1.1 11.7 11.8 0 0 1 0.5-1.1 11.7 11.8 0 0 1 0.6-1 11.7 11.8 0 0 1 0.7-0.9 11.7 11.8 0 0 1 0.8-0.9 11.7 11.8 0 0 1 0.9-0.8 11.7 11.8 0 0 1 1-0.7 11.7 11.8 0 0 1 1-0.6 11.7 11.8 0 0 1 1.1-0.5 11.7 11.8 0 0 1 1.1-0.4 11.7 11.8 0 0 1 1.1-0.3 11.7 11.8 0 0 1 1.2-0.1 11.7 11.8 0 0 1 0.8 0l67.3 0 0-13-130.5 0z" style="fill:#c66;stroke-width:0.35433072"/><path d="m374.4 401.1c0 4.3 0 8.7 0 13l6.5 0c3.6 0 6.5-2.9 6.5-6.5 0-3.6-2.9-6.5-6.5-6.5z" style="fill:#c66;stroke-width:0.35433072"/><path d="m374.4 622.1c0 4.3 0 8.7 0 13l6.5 0c3.6 0 6.5-2.9 6.5-6.5 0-3.6-2.9-6.5-6.5-6.5z" style="fill:#c66;stroke-width:0.35433072"/><rect y="622.1" x="154.4" height="13" width="109" style="fill:#c66;stroke-width:0.35433072"/><g class="btnWater" transform="translate(-698.57143 135.71388)"><rect y="316.4" x="774" height="30" width="75" style="fill:#fc6;stroke-width:0.35433072"/><text x="845.3" y="342.4" style="-inkscape-font-specification:'League Gothic';font-family:'League Gothic';font-size:16.25px;letter-spacing:0px;line-height:125%;stroke-width:1px;text-align:end;text-anchor:end;word-spacing:0px"><tspan x="845.3" y="342.4">  WATER</tspan></text></g><path d="m278.4 452.1c0 10 0 20 0 30l15 0c8.3 0 15-6.7 15-15 0-8.3-6.7-15-15-15z" style="fill:#99f;stroke-width:0.35433072"/><text class="txtTemp" x="275.2" y="480.8" style="-inkscape-font-specification:'League Gothic';fill:#f96;font-family:'League Gothic';font-size:36.25px;letter-spacing:0px;line-height:125%;stroke-width:1px;text-align:end;text-anchor:end;word-spacing:0px"><tspan x="275.2" y="480.8">  99.9</tspan></text><rect width="75" height="30" x="154.4" y="452.1" style="fill:#99f;stroke-width:0.35433072"/><text y="413.4" x="371" style="-inkscape-font-specification:'League Gothic';fill:#f90;font-family:'League Gothic';font-size:16.25px;letter-spacing:0px;line-height:125%;stroke-width:1px;text-align:end;text-anchor:end;word-spacing:0px"><tspan y="413.4" x="371">  TEMP</tspan></text><text x="371" y="634.4" style="-inkscape-font-specification:'League Gothic';fill:#f90;font-family:'League Gothic';font-size:16.25px;letter-spacing:0px;line-height:125%;stroke-width:1px;text-align:end;text-anchor:end;word-spacing:0px"><tspan x="371" y="634.4">  HOME AUTOMATION 1.00</tspan></text><g class="btnTemp" transform="translate(-698.57143 135.71388)"><rect y="350.4" x="774" height="30" width="75" style="fill:#f90;stroke-width:0.35433072"/><text y="376.4" x="845.2" style="-inkscape-font-specification:'League Gothic';font-family:'League Gothic';font-size:16.25px;letter-spacing:0px;line-height:125%;stroke-width:1px;text-align:end;text-anchor:end;word-spacing:0px"><tspan y="376.4" x="845.2">  TEMP</tspan></text></g><text y="478.1" x="225.6" style="-inkscape-font-specification:'League Gothic';font-family:'League Gothic';font-size:16.25px;letter-spacing:0px;line-height:125%;stroke-width:1px;text-align:end;text-anchor:end;word-spacing:0px"><tspan y="478.1" x="225.6">  TEMP</tspan></text><rect y="520.1" x="154.4" height="30" width="75" style="fill:#99f;stroke-width:0.35433072"/><rect y="520.1" x="278.4" height="64" width="30" style="fill:#99f;stroke-width:0.35433072"/><text class="txtSetTemp" y="548.8" x="275.2" style="-inkscape-font-specification:'League Gothic';fill:#f96;font-family:'League Gothic';font-size:36.25px;letter-spacing:0px;line-height:125%;stroke-width:1px;text-align:end;text-anchor:end;word-spacing:0px"><tspan y="548.8" x="275.2">  99.9</tspan></text><text y="546.1" x="225.6" style="-inkscape-font-specification:'League Gothic';font-family:'League Gothic';font-size:16.25px;letter-spacing:0px;line-height:125%;stroke-width:1px;text-align:end;text-anchor:end;word-spacing:0px"><tspan y="546.1" x="225.6">  SET</tspan></text><g class="btnUp" transform="translate(-698.57143 135.71388)"><path d="m1071 384.4c8.3 0 15 6.7 15 15 0 8.3-6.7 15-15 15l-20 0-25 0-15 0 0-15 0-15 15 0 25 0 20 0z" style="fill:#fc6;stroke-width:0.35433072"/><text y="410.4" x="1071.2" style="-inkscape-font-specification:'League Gothic';font-family:'League Gothic';font-size:16.25px;letter-spacing:0px;line-height:125%;stroke-width:1px;text-align:end;text-anchor:end;word-spacing:0px"><tspan y="410.4" x="1071.2">  UP</tspan></text></g><g class="btnDown" transform="translate(-698.57143 135.71388)"><path d="m1071 418.4c8.3 0 15 6.7 15 15 0 8.3-6.7 15-15 15l-20 0-25 0-15 0 0-15 0-15 15 0 25 0 20 0z" style="fill:#fc6;stroke-width:0.35433072"/><text x="1071.2" y="444.2" style="-inkscape-font-specification:'League Gothic';font-family:'League Gothic';font-size:16.25px;letter-spacing:0px;line-height:125%;stroke-width:1px;text-align:end;text-anchor:end;word-spacing:0px"><tspan x="1071.2" y="444.2">  DOWN</tspan></text></g><path d="m278.4 486.1c0 10 0 20 0 30l15 0c8.3 0 15-6.7 15-15 0-8.3-6.7-15-15-15z" style="fill:#99f;stroke-width:0.35433072"/><text class="txtHumidity" y="514.8" x="275.2" style="-inkscape-font-specification:'League Gothic';fill:#f96;font-family:'League Gothic';font-size:36.25px;letter-spacing:0px;line-height:125%;stroke-width:1px;text-align:end;text-anchor:end;word-spacing:0px"><tspan y="514.8" x="275.2">  99.9</tspan></text><rect y="486.1" x="154.4" height="30" width="75" style="fill:#99f;stroke-width:0.35433072"/><text x="225.6" y="512.1" style="-inkscape-font-specification:'League Gothic';font-family:'League Gothic';font-size:16.25px;letter-spacing:0px;line-height:125%;stroke-width:1px;text-align:end;text-anchor:end;word-spacing:0px"><tspan x="225.6" y="512.1">  HUMIDITY</tspan></text></g></svg>
