<?xml-stylesheet type="text/css" href="svg.css"?><svg xmlns="http://www.w3.org/2000/svg" viewBox="0 0 312 234" height="66" width="88"><g transform="translate(-219 -415.36219)"><rect y="534.4" x="219" height="98" width="75" style="fill:#c66;stroke-width:0.35433072"/><rect y="415.4" x="377" height="13" width="55" style="fill:#c66;stroke-width:0.35433072"/><rect width="75" height="13" x="219" y="636.4" style="fill:#c66;stroke-width:0.35433072"/><path d="m242.5 415.4a23.5 23.5 0 0 0-1.7 0.1 23.5 23.5 0 0 0-2.3 0.3 23.5 23.5 0 0 0-2.3 0.5 23.5 23.5 0 0 0-2.2 0.7 23.5 23.5 0 0 0-2.1 1 23.5 23.5 0 0 0-2 1.2 23.5 23.5 0 0 0-1.9 1.4 23.5 23.5 0 0 0-1.8 1.6 23.5 23.5 0 0 0-1.6 1.7 23.5 23.5 0 0 0-1.4 1.9 23.5 23.5 0 0 0-1.2 2 23.5 23.5 0 0 0-1 2.1 23.5 23.5 0 0 0-0.8 2.2 23.5 23.5 0 0 0-0.6 2.3 23.5 23.5 0 0 0-0.4 2.3 23.5 23.5 0 0 0-0.1 2.3l0 23.5 23.5 0 51.5 0 0-22.2a11.7 11.8 0 0 1 0.1-1.2 11.7 11.8 0 0 1 0.2-1.2 11.7 11.8 0 0 1 0.3-1.1 11.7 11.8 0 0 1 0.4-1.1 11.7 11.8 0 0 1 0.5-1.1 11.7 11.8 0 0 1 0.6-1 11.7 11.8 0 0 1 0.7-0.9 11.7 11.8 0 0 1 0.8-0.9 11.7 11.8 0 0 1 0.9-0.8 11.7 11.8 0 0 1 1-0.7 11.7 11.8 0 0 1 1-0.6 11.7 11.8 0 0 1 1.1-0.5 11.7 11.8 0 0 1 1.1-0.4 11.7 11.8 0 0 1 1.1-0.3 11.7 11.8 0 0 1 1.2-0.1 11.7 11.8 0 0 1 0.8 0l67.3 0 0-13-130.5 0z" style="fill:#c66;stroke-width:0.35433072"/><path d="m518 415.4c0 4.3 0 8.7 0 13l6.5 0c3.6 0 6.5-2.9 6.5-6.5 0-3.6-2.9-6.5-6.5-6.5z" style="fill:#c66;stroke-width:0.35433072"/><path d="m518 636.4c0 4.3 0 8.7 0 13l6.5 0c3.6 0 6.5-2.9 6.5-6.5 0-3.6-2.9-6.5-6.5-6.5z" style="fill:#c66;stroke-width:0.35433072"/><rect y="636.4" x="298" height="13" width="109" style="fill:#c66;stroke-width:0.35433072"/><g class="btnWater" transform="translate(-555 399.99959)"><rect y="66.4" x="774" height="30" width="75" style="fill:#fc6;stroke-width:0.35433072"/><text x="845.3" y="92.4" style="-inkscape-font-specification:'League Gothic';font-family:'League Gothic';font-size:16.25px;letter-spacing:0px;line-height:125%;stroke-width:1px;text-align:end;text-anchor:end;word-spacing:0px"><tspan x="845.3" y="92.4">  WATER</tspan></text></g><text y="427.6" x="514.6" style="-inkscape-font-specification:'League Gothic';fill:#f90;font-family:'League Gothic';font-size:16.25px;letter-spacing:0px;line-height:125%;stroke-width:1px;text-align:end;text-anchor:end;word-spacing:0px"><tspan y="427.6" x="514.6">  WATER - SETTINGS</tspan></text><text x="514.6" y="648.6" style="-inkscape-font-specification:'League Gothic';fill:#f90;font-family:'League Gothic';font-size:16.25px;letter-spacing:0px;line-height:125%;stroke-width:1px;text-align:end;text-anchor:end;word-spacing:0px"><tspan x="514.6" y="648.6">  HOME AUTOMATION 1.00</tspan></text><g class="btnTemp" transform="translate(-555 399.99959)"><rect y="100.4" x="774" height="30" width="75" style="fill:#fc6;stroke-width:0.35433072"/><text y="126.4" x="845.2" style="-inkscape-font-specification:'League Gothic';font-family:'League Gothic';font-size:16.25px;letter-spacing:0px;line-height:125%;stroke-width:1px;text-align:end;text-anchor:end;word-spacing:0px"><tspan y="126.4" x="845.2">  TEMP</tspan></text></g><rect width="75" height="30" x="298" y="466.4" style="fill:#99f;stroke-width:0.35433072"/><text y="492.4" x="369.2" style="-inkscape-font-specification:'League Gothic';font-family:'League Gothic';font-size:16.25px;letter-spacing:0px;line-height:125%;stroke-width:1px;text-align:end;text-anchor:end;word-spacing:0px"><tspan y="492.4" x="369.2">  DAY</tspan></text><rect y="534.4" x="298" height="30" width="40" style="fill:#99f;stroke-width:0.35433072"/><text x="334.7" y="560.4" style="-inkscape-font-specification:'League Gothic';font-family:'League Gothic';font-size:16.25px;letter-spacing:0px;line-height:125%;stroke-width:1px;text-align:end;text-anchor:end;word-spacing:0px"><tspan x="334.7" y="560.4">  FROM</tspan></text><path d="m501 534.4c0 10 0 20 0 30l15 0c8.3 0 15-6.7 15-15 0-8.3-6.7-15-15-15z" style="fill:#99f;stroke-width:0.35433072"/><g class="btnSave" transform="translate(-974 149.99959)"><rect width="75" height="30" x="1351" y="452.4" ry="15" style="fill:#fc6;stroke-width:0.35433072"/><text x="1410.1" y="478.4" style="-inkscape-font-specification:'League Gothic';font-family:'League Gothic';font-size:16.25px;letter-spacing:0px;line-height:125%;stroke-width:1px;text-align:end;text-anchor:end;word-spacing:0px"><tspan x="1410.1" y="478.4">  SAVE</tspan></text></g><g class="btnMonday" transform="translate(-555 149.99959)"><rect class="btnMondayOn" y="316.4" x="932" height="30" width="20" style="fill:#fc6;stroke-width:0.35433072"/><rect class="btnMondayOff" width="20" height="30" x="932" y="316.4" style="fill:#c30;stroke-width:0.35433072"/><text y="342.2" x="948.1" style="-inkscape-font-specification:'League Gothic';font-family:'League Gothic';font-size:16.25px;letter-spacing:0px;line-height:125%;stroke-width:1px;text-align:end;text-anchor:end;word-spacing:0px"><tspan y="342.2" x="948.1">  M</tspan></text></g><g class="btnTuesday" transform="translate(-555 149.99959)"><rect class="btnTuesdayOn" width="20" height="30" x="954" y="316.4" style="fill:#fc6;stroke-width:0.35433072"/><rect class="btnTuesdayOff" y="316.4" x="954" height="30" width="20" style="fill:#c30;stroke-width:0.35433072"/><text x="970.1" y="342.2" style="-inkscape-font-specification:'League Gothic';font-family:'League Gothic';font-size:16.25px;letter-spacing:0px;line-height:125%;stroke-width:1px;text-align:end;text-anchor:end;word-spacing:0px"><tspan x="970.1" y="342.2">  T</tspan></text></g><g class="btnWednesday" transform="translate(-555 149.99959)"><rect class="btnWednesdayOn" y="316.4" x="976" height="30" width="20" style="fill:#fc6;stroke-width:0.35433072"/><rect class="btnWednesdayOff" width="20" height="30" x="976" y="316.4" style="fill:#c30;stroke-width:0.35433072"/><text y="342.2" x="992.1" style="-inkscape-font-specification:'League Gothic';font-family:'League Gothic';font-size:16.25px;letter-spacing:0px;line-height:125%;stroke-width:1px;text-align:end;text-anchor:end;word-spacing:0px"><tspan y="342.2" x="992.1">  W</tspan></text></g><g class="btnThursday" transform="translate(-555 149.99959)"><rect class="btnThursdayOn" width="20" height="30" x="998" y="316.4" style="fill:#fc6;stroke-width:0.35433072"/><rect class="btnThursdayOff" y="316.4" x="998" height="30" width="20" style="fill:#c30;stroke-width:0.35433072"/><text x="1014.1" y="342.2" style="-inkscape-font-specification:'League Gothic';font-family:'League Gothic';font-size:16.25px;letter-spacing:0px;line-height:125%;stroke-width:1px;text-align:end;text-anchor:end;word-spacing:0px"><tspan x="1014.1" y="342.2">  T</tspan></text></g><g class="btnFriday" transform="translate(-555 149.99959)"><rect class="btnFridayOn" y="316.4" x="1020" height="30" width="20" style="fill:#fc6;stroke-width:0.35433072"/><rect class="btnFridayOff" width="20" height="30" x="1020" y="316.4" style="fill:#c30;stroke-width:0.35433072"/><text y="342.2" x="1036.1" style="-inkscape-font-specification:'League Gothic';font-family:'League Gothic';font-size:16.25px;letter-spacing:0px;line-height:125%;stroke-width:1px;text-align:end;text-anchor:end;word-spacing:0px"><tspan y="342.2" x="1036.1">  F</tspan></text></g><g class="btnSaturday" transform="translate(-555 149.99959)"><rect class="btnSaturdayOn" width="20" height="30" x="1044" y="316.4" style="fill:#fc6;stroke-width:0.35433072"/><rect class="btnSaturdayOff" y="316.4" x="1044" height="30" width="20" style="fill:#c30;stroke-width:0.35433072"/><text x="1060.1" y="342.2" style="-inkscape-font-specification:'League Gothic';font-family:'League Gothic';font-size:16.25px;letter-spacing:0px;line-height:125%;stroke-width:1px;text-align:end;text-anchor:end;word-spacing:0px"><tspan x="1060.1" y="342.2">  S</tspan></text></g><g class="btnSunday" transform="translate(-555 149.99959)"><rect class="btnSundayOn" y="316.4" x="1066" height="30" width="20" style="fill:#fc6;stroke-width:0.35433072"/><rect class="btnSundayOff" width="20" height="30" x="1066" y="316.4" style="fill:#c30;stroke-width:0.35433072"/><text y="342.2" x="1082.1" style="-inkscape-font-specification:'League Gothic';font-family:'League Gothic';font-size:16.25px;letter-spacing:0px;line-height:125%;stroke-width:1px;text-align:end;text-anchor:end;word-spacing:0px"><tspan y="342.2" x="1082.1">  S</tspan></text></g><text class="txtFrom" x="369.7" y="563.1" style="-inkscape-font-specification:'League Gothic';fill:#f96;font-family:'League Gothic';font-size:36.25px;letter-spacing:0px;line-height:125%;stroke-width:1px;text-align:center;text-anchor:middle;word-spacing:0px"><tspan x="369.7" y="563.1">  00:00</tspan></text><g class="btnFromHUp" transform="translate(-895 149.99959)"><path d="m1249 360.4a11 11 0 0 0-11 11l0 11 11 0 11 0 0-11a11 11 0 0 0-11-11z" style="fill:#fc6;stroke-width:0.5"/><text x="1258.1" y="380.3" style="-inkscape-font-specification:'League Gothic, Normal';font-family:'League Gothic';font-size:10px;letter-spacing:0px;line-height:125%;stroke-width:1px;text-align:end;text-anchor:end;word-spacing:0px"><tspan x="1258.1" y="380.3">  UP</tspan></text></g><g class="btnFromMUp" transform="translate(-895 149.99959)"><path d="m1280 360.4a11 11 0 0 0-11 11l0 11 11 0 11 0 0-11a11 11 0 0 0-11-11z" style="fill:#fc6;stroke-width:0.5"/><text y="380.3" x="1289.1" style="-inkscape-font-specification:'League Gothic, Normal';font-family:'League Gothic';font-size:10px;letter-spacing:0px;line-height:125%;stroke-width:1px;text-align:end;text-anchor:end;word-spacing:0px"><tspan y="380.3" x="1289.1">  UP</tspan></text></g><g class="btnFromHDown" transform="translate(-895 149.99959)"><path d="m1249 438.4a11 11 0 0 1-11-11l0-11 11 0 11 0 0 11a11 11 0 0 1-11 11z" style="fill:#fc6;stroke-width:0.5"/><text y="425.8" x="1258.4" style="-inkscape-font-specification:'League Gothic, Normal';font-family:'League Gothic';font-size:10px;letter-spacing:0px;line-height:125%;stroke-width:1px;text-align:end;text-anchor:end;word-spacing:0px"><tspan y="425.8" x="1258.4">  DOWN</tspan></text></g><g class="btnFromMDown" transform="translate(-895 149.99959)"><path d="m1280 438.4a11 11 0 0 1-11-11l0-11 11 0 11 0 0 11a11 11 0 0 1-11 11z" style="fill:#fc6;stroke-width:0.5"/><text x="1289.4" y="425.8" style="-inkscape-font-specification:'League Gothic, Normal';font-family:'League Gothic';font-size:10px;letter-spacing:0px;line-height:125%;stroke-width:1px;text-align:end;text-anchor:end;word-spacing:0px"><tspan x="1289.4" y="425.8">  DOWN</tspan></text></g><text class="txtTo" x="470.7" y="563.1" style="-inkscape-font-specification:'League Gothic';fill:#f96;font-family:'League Gothic';font-size:36.25px;letter-spacing:0px;line-height:125%;stroke-width:1px;text-align:center;text-anchor:middle;word-spacing:0px"><tspan x="470.7" y="563.1">  00:00</tspan></text><rect width="40" height="30" x="401" y="534.4" style="fill:#99f;stroke-width:0.35433072"/><text y="560.4" x="437.7" style="-inkscape-font-specification:'League Gothic';font-family:'League Gothic';font-size:16.25px;letter-spacing:0px;line-height:125%;stroke-width:1px;text-align:end;text-anchor:end;word-spacing:0px"><tspan y="560.4" x="437.7">  TO</tspan></text><g class="btnToHUp" transform="translate(-895 149.99959)"><path d="m1350 360.4a11 11 0 0 0-11 11l0 11 11 0 11 0 0-11a11 11 0 0 0-11-11z" style="fill:#fc6;stroke-width:0.5"/><text y="380.3" x="1359.1" style="-inkscape-font-specification:'League Gothic, Normal';font-family:'League Gothic';font-size:10px;letter-spacing:0px;line-height:125%;stroke-width:1px;text-align:end;text-anchor:end;word-spacing:0px"><tspan y="380.3" x="1359.1">  UP</tspan></text></g><g class="btnToMUp" transform="translate(-895 149.99959)"><path d="m1381 360.4a11 11 0 0 0-11 11l0 11 11 0 11 0 0-11a11 11 0 0 0-11-11z" style="fill:#fc6;stroke-width:0.5"/><text x="1390.1" y="380.3" style="-inkscape-font-specification:'League Gothic, Normal';font-family:'League Gothic';font-size:10px;letter-spacing:0px;line-height:125%;stroke-width:1px;text-align:end;text-anchor:end;word-spacing:0px"><tspan x="1390.1" y="380.3">  UP</tspan></text></g><g class="btnToHDown" transform="translate(-895 149.99959)"><path d="m1350 438.4a11 11 0 0 1-11-11l0-11 11 0 11 0 0 11a11 11 0 0 1-11 11z" style="fill:#fc6;stroke-width:0.5"/><text x="1359.4" y="425.8" style="-inkscape-font-specification:'League Gothic, Normal';font-family:'League Gothic';font-size:10px;letter-spacing:0px;line-height:125%;stroke-width:1px;text-align:end;text-anchor:end;word-spacing:0px"><tspan x="1359.4" y="425.8">  DOWN</tspan></text></g><g class="btnToMDown" transform="translate(-895 149.99959)"><path d="m1381 438.4a11 11 0 0 1-11-11l0-11 11 0 11 0 0 11a11 11 0 0 1-11 11z" style="fill:#fc6;stroke-width:0.5"/><text y="425.8" x="1390.4" style="-inkscape-font-specification:'League Gothic, Normal';font-family:'League Gothic';font-size:10px;letter-spacing:0px;line-height:125%;stroke-width:1px;text-align:end;text-anchor:end;word-spacing:0px"><tspan y="425.8" x="1390.4">  DOWN</tspan></text></g></g></svg>
