<?xml-stylesheet type="text/css" href="svg.css"?><svg xmlns="http://www.w3.org/2000/svg" viewBox="0 0 312.00001 234.00003"><path fill="#c66" d="M0 119h75v98H0zM158 0h105v13H158zM0 221h75v13H0zM23.5.00001a23.499998 23.5 0 0 0-1.6621.0605 23.499998 23.5 0 0 0-2.332.2832 23.499998 23.5 0 0 0-2.293.51367 23.499998 23.5 0 0 0-2.2285.74023 23.499998 23.5 0 0 0-2.1446.95899 23.499998 23.5 0 0 0-2.0371 1.16992 23.499998 23.5 0 0 0-1.9101 1.36523 23.499998 23.5 0 0 0-1.7657 1.55079 23.499998 23.5 0 0 0-1.6015 1.71875 23.499998 23.5 0 0 0-1.4199 1.87109 23.499998 23.5 0 0 0-1.2286 2.00195 23.499998 23.5 0 0 0-1.0214 2.11524 23.499998 23.5 0 0 0-.8067 2.20703 23.499998 23.5 0 0 0-.5801 2.27539 23.499998 23.5 0 0 0-.3515 2.32226A23.499998 23.5 0 0 0 0 23.50001v23.5h75v-22.25a11.749999 11.75 0 0 1 .059-1.17188 11.749999 11.75 0 0 1 .1758-1.16211 11.749999 11.75 0 0 1 .291-1.13672 11.749999 11.75 0 0 1 .4023-1.10351 11.749999 11.75 0 0 1 .5098-1.05859 11.749999 11.75 0 0 1 .6152-1 11.749999 11.75 0 0 1 .711-.93555 11.749999 11.75 0 0 1 .8008-.85938 11.749999 11.75 0 0 1 .8808-.77539 11.749999 11.75 0 0 1 .957-.68359 11.749999 11.75 0 0 1 1.0176-.58399 11.749999 11.75 0 0 1 1.0723-.48046 11.749999 11.75 0 0 1 1.1152-.36914 11.749999 11.75 0 0 1 1.1446-.25782 11.749999 11.75 0 0 1 1.166-.14062 11.749999 11.75 0 0 1 .832-.0312h67.25v-13h-130.5zm275.5 0v13h6.5c3.5899 0 6.5-2.91015 6.5-6.5s-2.9101-6.5-6.5-6.5zm0 221.00002v13h6.5c3.5899 0 6.5-2.9102 6.5-6.5 0-3.5899-2.9101-6.5-6.5-6.5zM79 221h109v13H79z"/><g class="btnWater"><path fill="#f90" d="M0 51.000012h75v30H0z"/><text x="845.33032" y="92.362602" style="line-height:125%;-inkscape-font-specification:'League Gothic';text-align:end" font-size="16.25" font-family="League Gothic" letter-spacing="0" word-spacing="0" text-anchor="end" transform="translate(-774 -15.363)"><tspan x="845.33032" y="92.362602">WATER</tspan></text></g><text x="323.81958" y="475.0722" fill="#f96" class="txtFlow" style="line-height:125%;-inkscape-font-specification:'League Gothic';text-align:end" font-size="36.25" font-family="League Gothic" letter-spacing="0" word-spacing="0" text-anchor="end" transform="translate(-124 -395.362)"><tspan x="323.81958" y="475.0722">99.9</tspan></text><path fill="#99f" d="M79 51.00021h75v30H79z"/><text x="419.6189" y="407.63855" fill="#f90" style="line-height:125%;-inkscape-font-specification:'League Gothic';text-align:end" font-size="16.25" font-family="League Gothic" letter-spacing="0" word-spacing="0" text-anchor="end" transform="translate(-124 -395.362)"><tspan x="419.6189" y="407.63855">WATER</tspan></text><text x="419.6189" y="628.63855" fill="#f90" style="line-height:125%;-inkscape-font-specification:'League Gothic';text-align:end" font-size="16.25" font-family="League Gothic" letter-spacing="0" word-spacing="0" text-anchor="end" transform="translate(-124 -395.362)"><tspan x="419.6189" y="628.63855">HOME AUTOMATION 1.00</tspan></text><g class="btnTemp"><path fill="#fc6" d="M0 85.00001h75v30H0z"/><text x="845.2204" y="126.3626" style="line-height:125%;-inkscape-font-specification:'League Gothic';text-align:end" font-size="16.25" font-family="League Gothic" letter-spacing="0" word-spacing="0" text-anchor="end" transform="translate(-774 -15.363)"><tspan x="845.2204" y="126.3626">TEMP</tspan></text></g><text x="274.22046" y="472.36218" style="line-height:125%;-inkscape-font-specification:'League Gothic';text-align:end" font-size="16.25" font-family="League Gothic" letter-spacing="0" word-spacing="0" text-anchor="end" transform="translate(-124 -395.362)"><tspan x="274.22046" y="472.36218">FLOW</tspan></text><path fill="#99f" d="M203 17.00021h30v98h-30z"/><g class="btnEnable"><path fill="#fc6" d="M297 51.000012c8.31 0 15 6.69 15 15 0 8.31-6.69 15-15 15h-60v-30h60z"/><text x="1071.2205" y="92.362602" style="line-height:125%;-inkscape-font-specification:'League Gothic';text-align:end" font-size="16.25" font-family="League Gothic" letter-spacing="0" word-spacing="0" text-anchor="end" transform="translate(-774 -15.363)"><tspan x="1071.2205" y="92.362602">ENABLE</tspan></text></g><g class="btnDisable"><path fill="#fc6" d="M297 85.00002c8.31 0 15 6.69 15 15 0 8.31-6.69 15-15 15h-60v-30h60z"/><text x="1071.2205" y="126.2326" style="line-height:125%;-inkscape-font-specification:'League Gothic';text-align:end" font-size="16.25" font-family="League Gothic" letter-spacing="0" word-spacing="0" text-anchor="end" transform="translate(-774 -15.363)"><tspan x="1071.2205" y="126.2326">DISABLE</tspan></text></g><path fill="#f90" d="M79 216.00018h233v1H79zm0-60h233v1H79zm0 45h233v1H79zm0-15h233v1H79zm0-15h233v1H79z"/><text x="208.89893" y="604.29175" fill="#f90" style="line-height:125%;-inkscape-font-specification:'League Gothic, Normal';text-align:end" font-size="8.75" font-family="League Gothic" letter-spacing="0" word-spacing="0" text-anchor="end" transform="translate(-124 -395.362)"><tspan x="208.89893" y="604.29175">25</tspan></text><text x="208.78613" y="589.29175" fill="#f90" style="line-height:125%;-inkscape-font-specification:'League Gothic, Normal';text-align:end" font-size="8.75" font-family="League Gothic" letter-spacing="0" word-spacing="0" text-anchor="end" transform="translate(-124 -395.362)"><tspan x="208.78613" y="589.29175">50</tspan></text><text x="208.48499" y="574.29175" fill="#f90" style="line-height:125%;-inkscape-font-specification:'League Gothic, Normal';text-align:end" font-size="8.75" font-family="League Gothic" letter-spacing="0" word-spacing="0" text-anchor="end" transform="translate(-124 -395.362)"><tspan x="208.48499" y="574.29175">75</tspan></text><text x="211.11523" y="559.29175" fill="#f90" style="line-height:125%;-inkscape-font-specification:'League Gothic, Normal';text-align:end" font-size="8.75" font-family="League Gothic" letter-spacing="0" word-spacing="0" text-anchor="end" transform="translate(-124 -395.362)"><tspan x="211.11523" y="559.29175">100</tspan></text><g class="btnSettings"><path fill="#fc6" d="M297 17.00002c8.31 0 15 6.69 15 15 0 8.31-6.69 15-15 15h-60v-30h60z"/><text x="1071.2205" y="126.2326" style="line-height:125%;-inkscape-font-specification:'League Gothic';text-align:end" font-size="16.25" font-family="League Gothic" letter-spacing="0" word-spacing="0" text-anchor="end" transform="translate(-774 -83.363)"><tspan x="1071.2205" y="126.2326">SETTINGS</tspan></text></g><text x="-416.16949" y="352.87" transform="rotate(-90 -259.68 -135.68)" style="line-height:125%;-inkscape-font-specification:'League Gothic';text-align:end" font-size="16.25" font-family="League Gothic" letter-spacing="0" word-spacing="0" text-anchor="end"><tspan x="-416.16949" y="352.87">MONITORING</tspan></text><path fill="#99f" d="M79 119.00018h75v30H79z"/><text x="274.22046" y="540.36218" style="line-height:125%;-inkscape-font-specification:'League Gothic';text-align:end" font-size="16.25" font-family="League Gothic" letter-spacing="0" word-spacing="0" text-anchor="end" transform="translate(-124 -395.362)"><tspan x="274.22046" y="540.36218">VALVE</tspan></text><g class="btnOff"><path fill="#fc6" d="M297 119.000012c8.31 0 15 6.69 15 15 0 8.31-6.69 15-15 15h-60v-30h60z"/><text x="1071.2205" y="92.362602" style="line-height:125%;-inkscape-font-specification:'League Gothic';text-align:end" font-size="16.25" font-family="League Gothic" letter-spacing="0" word-spacing="0" text-anchor="end" transform="translate(-774 52.637)"><tspan x="1071.2205" y="92.362602">OFF</tspan></text></g><g class="btnOn"><path fill="#fc6" d="M158 119.00002h75v30h-75z"/><text x="1344.2205" y="160.36261" style="line-height:125%;-inkscape-font-specification:'League Gothic';text-align:end" font-size="16.25" font-family="League Gothic" letter-spacing="0" word-spacing="0" text-anchor="end" transform="translate(-1115 -15.363)"><tspan x="1344.2205" y="160.36261">ON</tspan></text></g></svg>