<?xml version="1.0" encoding="UTF-8" standalone="no"?>
<svg
   xmlns:dc="http://purl.org/dc/elements/1.1/"
   xmlns:cc="http://creativecommons.org/ns#"
   xmlns:rdf="http://www.w3.org/1999/02/22-rdf-syntax-ns#"
   xmlns:svg="http://www.w3.org/2000/svg"
   xmlns="http://www.w3.org/2000/svg"
   version="1.1"
   id="svg4465"
   viewBox="0 0 312.00001 234.00003"
   height="66.040009mm"
   width="88.053337mm">
  <defs
     id="defs4467" />
  <metadata
     id="metadata4470">
    <rdf:RDF>
      <cc:Work
         rdf:about="">
        <dc:format>image/svg+xml</dc:format>
        <dc:type
           rdf:resource="http://purl.org/dc/dcmitype/StillImage" />
        <dc:title></dc:title>
      </cc:Work>
    </rdf:RDF>
  </metadata>
  <g
     transform="translate(-124,-395.36218)"
     id="layer1">
    <rect
       style="fill:#cc6666;fill-opacity:1;stroke:none;stroke-width:0.35433072;stroke-linecap:butt;stroke-miterlimit:4;stroke-dasharray:none;stroke-dashoffset:0;stroke-opacity:1"
       id="rect3675"
       width="75"
       height="98"
       x="124"
       y="514.36218" />
    <rect
       style="fill:#cc6666;fill-opacity:1;stroke:none;stroke-width:0.35433072;stroke-linecap:butt;stroke-miterlimit:4;stroke-dasharray:none;stroke-dashoffset:0;stroke-opacity:1"
       id="rect3677"
       width="105"
       height="13"
       x="282"
       y="395.36218" />
    <rect
       y="616.36218"
       x="124"
       height="13"
       width="75"
       id="rect3680"
       style="fill:#cc6666;fill-opacity:1;stroke:none;stroke-width:0.35433072;stroke-linecap:butt;stroke-miterlimit:4;stroke-dasharray:none;stroke-dashoffset:0;stroke-opacity:1" />
    <path
       id="path3682"
       d="m 147.5,395.36219 a 23.499998,23.5 0 0 0 -1.6621,0.0605 23.499998,23.5 0 0 0 -2.332,0.2832 23.499998,23.5 0 0 0 -2.293,0.51367 23.499998,23.5 0 0 0 -2.2285,0.74023 23.499998,23.5 0 0 0 -2.1446,0.95899 23.499998,23.5 0 0 0 -2.0371,1.16992 23.499998,23.5 0 0 0 -1.9101,1.36523 23.499998,23.5 0 0 0 -1.7657,1.55079 23.499998,23.5 0 0 0 -1.6015,1.71875 23.499998,23.5 0 0 0 -1.4199,1.87109 23.499998,23.5 0 0 0 -1.2286,2.00195 23.499998,23.5 0 0 0 -1.0214,2.11524 23.499998,23.5 0 0 0 -0.8067,2.20703 23.499998,23.5 0 0 0 -0.5801,2.27539 23.499998,23.5 0 0 0 -0.3515,2.32226 23.499998,23.5 0 0 0 -0.1172,2.34576 l 0,23.5 23.5,0 51.5,0 0,-22.25 a 11.749999,11.75 0 0 1 0.059,-1.17188 11.749999,11.75 0 0 1 0.1758,-1.16211 11.749999,11.75 0 0 1 0.291,-1.13672 11.749999,11.75 0 0 1 0.4023,-1.10351 11.749999,11.75 0 0 1 0.5098,-1.05859 11.749999,11.75 0 0 1 0.6152,-1 11.749999,11.75 0 0 1 0.711,-0.93555 11.749999,11.75 0 0 1 0.8008,-0.85938 11.749999,11.75 0 0 1 0.8808,-0.77539 11.749999,11.75 0 0 1 0.957,-0.68359 11.749999,11.75 0 0 1 1.0176,-0.58399 11.749999,11.75 0 0 1 1.0723,-0.48046 11.749999,11.75 0 0 1 1.1152,-0.36914 11.749999,11.75 0 0 1 1.1446,-0.25782 11.749999,11.75 0 0 1 1.166,-0.14062 11.749999,11.75 0 0 1 0.832,-0.0312 l 67.25,0 0,-13 -130.5,0 z"
       style="fill:#cc6666;fill-opacity:1;stroke:none;stroke-width:0.35433072;stroke-linecap:butt;stroke-miterlimit:4;stroke-dasharray:none;stroke-dashoffset:0;stroke-opacity:1" />
    <path
       id="path3684"
       d="m 423,395.36219 c 0,4.33333 0,8.66667 0,13 l 6.5,0 c 3.5899,0 6.5,-2.91015 6.5,-6.5 0,-3.58985 -2.9101,-6.5 -6.5,-6.5 z"
       style="fill:#cc6666;fill-opacity:1;stroke:none;stroke-width:0.35433072;stroke-linecap:butt;stroke-miterlimit:4;stroke-dasharray:none;stroke-dashoffset:0;stroke-opacity:1" />
    <path
       style="fill:#cc6666;fill-opacity:1;stroke:none;stroke-width:0.35433072;stroke-linecap:butt;stroke-miterlimit:4;stroke-dasharray:none;stroke-dashoffset:0;stroke-opacity:1"
       d="m 423,616.36221 c 0,4.3333 0,8.6666 0,13 l 6.5,0 c 3.5899,0 6.5,-2.9102 6.5,-6.5 0,-3.5899 -2.9101,-6.5 -6.5,-6.5 z"
       id="path3686" />
    <rect
       style="fill:#cc6666;fill-opacity:1;stroke:none;stroke-width:0.35433072;stroke-linecap:butt;stroke-miterlimit:4;stroke-dasharray:none;stroke-dashoffset:0;stroke-opacity:1"
       id="rect3688"
       width="109"
       height="13"
       x="203"
       y="616.36218" />
    <g
       class="btnWater"
       transform="translate(-650,379.99959)"
       id="g6274">
      <rect
         style="fill:#ff9900;fill-opacity:1;stroke:none;stroke-width:0.35433072;stroke-linecap:butt;stroke-miterlimit:4;stroke-dasharray:none;stroke-dashoffset:0;stroke-opacity:1"
         id="rect3692"
         width="75"
         height="30"
         x="774"
         y="66.362602" />
      <text
         id="text3694"
         y="92.362602"
         x="845.33032"
         style="font-style:normal;font-variant:normal;font-weight:normal;font-stretch:normal;font-size:16.25px;line-height:125%;font-family:'League Gothic';-inkscape-font-specification:'League Gothic';text-align:end;letter-spacing:0px;word-spacing:0px;text-anchor:end;fill:#000000;fill-opacity:1;stroke:none;stroke-width:1px;stroke-linecap:butt;stroke-linejoin:miter;stroke-opacity:1"
         xml:space="preserve"><tspan
           id="tspan3696"
           y="92.362602"
           x="845.33032">WATER</tspan></text>
    </g>
    <text
       class="txtFlow"
       id="text3698"
       y="475.0722"
       x="323.81958"
       style="font-style:normal;font-variant:normal;font-weight:normal;font-stretch:normal;font-size:36.25px;line-height:125%;font-family:'League Gothic';-inkscape-font-specification:'League Gothic';text-align:end;letter-spacing:0px;word-spacing:0px;writing-mode:lr-tb;text-anchor:end;fill:#ff9966;fill-opacity:1;stroke:none;stroke-width:1px;stroke-linecap:butt;stroke-linejoin:miter;stroke-opacity:1"
       xml:space="preserve"><tspan
         id="tspan3700"
         y="475.0722"
         x="323.81958">99.9</tspan></text>
    <rect
       y="446.36221"
       x="203"
       height="30"
       width="75"
       id="rect3702"
       style="fill:#9999ff;fill-opacity:1;stroke:none;stroke-width:0.35433072;stroke-linecap:butt;stroke-miterlimit:4;stroke-dasharray:none;stroke-dashoffset:0;stroke-opacity:1" />
    <text
       xml:space="preserve"
       style="font-style:normal;font-variant:normal;font-weight:normal;font-stretch:normal;font-size:16.25px;line-height:125%;font-family:'League Gothic';-inkscape-font-specification:'League Gothic';text-align:end;letter-spacing:0px;word-spacing:0px;text-anchor:end;fill:#ff9900;fill-opacity:1;stroke:none;stroke-width:1px;stroke-linecap:butt;stroke-linejoin:miter;stroke-opacity:1"
       x="419.6189"
       y="407.63855"
       id="text3704"><tspan
         x="419.6189"
         y="407.63855"
         id="tspan3706">WATER</tspan></text>
    <text
       id="text3708"
       y="628.63855"
       x="419.6189"
       style="font-style:normal;font-variant:normal;font-weight:normal;font-stretch:normal;font-size:16.25px;line-height:125%;font-family:'League Gothic';-inkscape-font-specification:'League Gothic';text-align:end;letter-spacing:0px;word-spacing:0px;text-anchor:end;fill:#ff9900;fill-opacity:1;stroke:none;stroke-width:1px;stroke-linecap:butt;stroke-linejoin:miter;stroke-opacity:1"
       xml:space="preserve"><tspan
         id="tspan3710"
         y="628.63855"
         x="419.6189">HOME AUTOMATION 1.00</tspan></text>
    <g
       class="btnTemp"
       transform="translate(-650,379.99959)"
       id="g6272">
      <rect
         style="fill:#ffcc66;fill-opacity:1;stroke:none;stroke-width:0.35433072;stroke-linecap:butt;stroke-miterlimit:4;stroke-dasharray:none;stroke-dashoffset:0;stroke-opacity:1"
         id="rect3714"
         width="75"
         height="30"
         x="774"
         y="100.3626" />
      <text
         xml:space="preserve"
         style="font-style:normal;font-variant:normal;font-weight:normal;font-stretch:normal;font-size:16.25px;line-height:125%;font-family:'League Gothic';-inkscape-font-specification:'League Gothic';text-align:end;letter-spacing:0px;word-spacing:0px;text-anchor:end;fill:#000000;fill-opacity:1;stroke:none;stroke-width:1px;stroke-linecap:butt;stroke-linejoin:miter;stroke-opacity:1"
         x="845.2204"
         y="126.3626"
         id="text3716"><tspan
           x="845.2204"
           y="126.3626"
           id="tspan3718">TEMP</tspan></text>
    </g>
    <text
       xml:space="preserve"
       style="font-style:normal;font-variant:normal;font-weight:normal;font-stretch:normal;font-size:16.25px;line-height:125%;font-family:'League Gothic';-inkscape-font-specification:'League Gothic';text-align:end;letter-spacing:0px;word-spacing:0px;text-anchor:end;fill:#000000;fill-opacity:1;stroke:none;stroke-width:1px;stroke-linecap:butt;stroke-linejoin:miter;stroke-opacity:1"
       x="274.22046"
       y="472.36218"
       id="text3720"><tspan
         x="274.22046"
         y="472.36218"
         id="tspan3722">FLOW</tspan></text>
    <rect
       style="fill:#9999ff;fill-opacity:1;stroke:none;stroke-width:0.35433072;stroke-linecap:butt;stroke-miterlimit:4;stroke-dasharray:none;stroke-dashoffset:0;stroke-opacity:1"
       id="rect3724"
       width="30"
       height="98"
       x="327"
       y="412.36221" />
    <g
       class="btnEnable"
       transform="translate(-650,379.99959)"
       id="g6276">
      <path
         id="path3728"
         d="m 1071,66.362602 c 8.31,0 15,6.69 15,15 0,8.31 -6.69,15 -15,15 l -20,0 -25,0 -15,0 0,-15 0,-15 15,0 25,0 20,0 z"
         style="fill:#ffcc66;fill-opacity:1;stroke:none;stroke-width:0.35433072;stroke-linecap:butt;stroke-miterlimit:4;stroke-dasharray:none;stroke-dashoffset:0;stroke-opacity:1" />
      <text
         xml:space="preserve"
         style="font-style:normal;font-variant:normal;font-weight:normal;font-stretch:normal;font-size:16.25px;line-height:125%;font-family:'League Gothic';-inkscape-font-specification:'League Gothic';text-align:end;letter-spacing:0px;word-spacing:0px;text-anchor:end;fill:#000000;fill-opacity:1;stroke:none;stroke-width:1px;stroke-linecap:butt;stroke-linejoin:miter;stroke-opacity:1"
         x="1071.2205"
         y="92.362602"
         id="text3730"><tspan
           x="1071.2205"
           y="92.362602"
           id="tspan3732">ENABLE</tspan></text>
    </g>
    <g
       class="btnDisable"
       transform="translate(-650,379.99959)"
       id="g6278">
      <path
         style="fill:#ffcc66;fill-opacity:1;stroke:none;stroke-width:0.35433072;stroke-linecap:butt;stroke-miterlimit:4;stroke-dasharray:none;stroke-dashoffset:0;stroke-opacity:1"
         d="m 1071,100.36261 c 8.31,0 15,6.69 15,15 0,8.31 -6.69,15 -15,15 l -20,0 -25,0 -15,0 0,-15 0,-15 15,0 25,0 20,0 z"
         id="path3736" />
      <text
         id="text3738"
         y="126.2326"
         x="1071.2205"
         style="font-style:normal;font-variant:normal;font-weight:normal;font-stretch:normal;font-size:16.25px;line-height:125%;font-family:'League Gothic';-inkscape-font-specification:'League Gothic';text-align:end;letter-spacing:0px;word-spacing:0px;text-anchor:end;fill:#000000;fill-opacity:1;stroke:none;stroke-width:1px;stroke-linecap:butt;stroke-linejoin:miter;stroke-opacity:1"
         xml:space="preserve"><tspan
           id="tspan3740"
           y="126.2326"
           x="1071.2205">DISABLE</tspan></text>
    </g>
    <rect
       y="611.36218"
       x="203"
       height="1"
       width="233"
       id="rect3742"
       style="fill:#ff9900;fill-opacity:1;stroke:none;stroke-width:0.35433072;stroke-linecap:butt;stroke-miterlimit:4;stroke-dasharray:none;stroke-dashoffset:0;stroke-opacity:1" />
    <rect
       y="551.36218"
       x="203"
       height="1"
       width="233"
       id="rect3744"
       style="fill:#ff9900;fill-opacity:1;stroke:none;stroke-width:0.35433072;stroke-linecap:butt;stroke-miterlimit:4;stroke-dasharray:none;stroke-dashoffset:0;stroke-opacity:1" />
    <rect
       style="fill:#ff9900;fill-opacity:1;stroke:none;stroke-width:0.35433072;stroke-linecap:butt;stroke-miterlimit:4;stroke-dasharray:none;stroke-dashoffset:0;stroke-opacity:1"
       id="rect3746"
       width="233"
       height="1"
       x="203"
       y="596.36218" />
    <rect
       y="581.36218"
       x="203"
       height="1"
       width="233"
       id="rect3748"
       style="fill:#ff9900;fill-opacity:1;stroke:none;stroke-width:0.35433072;stroke-linecap:butt;stroke-miterlimit:4;stroke-dasharray:none;stroke-dashoffset:0;stroke-opacity:1" />
    <rect
       style="fill:#ff9900;fill-opacity:1;stroke:none;stroke-width:0.35433072;stroke-linecap:butt;stroke-miterlimit:4;stroke-dasharray:none;stroke-dashoffset:0;stroke-opacity:1"
       id="rect3750"
       width="233"
       height="1"
       x="203"
       y="566.36218" />
    <text
       xml:space="preserve"
       style="font-style:normal;font-variant:normal;font-weight:normal;font-stretch:normal;font-size:8.75px;line-height:125%;font-family:'League Gothic';-inkscape-font-specification:'League Gothic, Normal';text-align:end;letter-spacing:0px;word-spacing:0px;writing-mode:lr-tb;text-anchor:end;fill:#ff9900;fill-opacity:1;stroke:none;stroke-width:1px;stroke-linecap:butt;stroke-linejoin:miter;stroke-opacity:1"
       x="208.89893"
       y="604.29175"
       id="text3752"><tspan
         x="208.89893"
         y="604.29175"
         id="tspan3754">25</tspan></text>
    <text
       id="text3756"
       y="589.29175"
       x="208.78613"
       style="font-style:normal;font-variant:normal;font-weight:normal;font-stretch:normal;font-size:8.75px;line-height:125%;font-family:'League Gothic';-inkscape-font-specification:'League Gothic, Normal';text-align:end;letter-spacing:0px;word-spacing:0px;writing-mode:lr-tb;text-anchor:end;fill:#ff9900;fill-opacity:1;stroke:none;stroke-width:1px;stroke-linecap:butt;stroke-linejoin:miter;stroke-opacity:1"
       xml:space="preserve"><tspan
         id="tspan3758"
         y="589.29175"
         x="208.78613">50</tspan></text>
    <text
       xml:space="preserve"
       style="font-style:normal;font-variant:normal;font-weight:normal;font-stretch:normal;font-size:8.75px;line-height:125%;font-family:'League Gothic';-inkscape-font-specification:'League Gothic, Normal';text-align:end;letter-spacing:0px;word-spacing:0px;writing-mode:lr-tb;text-anchor:end;fill:#ff9900;fill-opacity:1;stroke:none;stroke-width:1px;stroke-linecap:butt;stroke-linejoin:miter;stroke-opacity:1"
       x="208.48499"
       y="574.29175"
       id="text3760"><tspan
         x="208.48499"
         y="574.29175"
         id="tspan3762">75</tspan></text>
    <text
       id="text3764"
       y="559.29175"
       x="211.11523"
       style="font-style:normal;font-variant:normal;font-weight:normal;font-stretch:normal;font-size:8.75px;line-height:125%;font-family:'League Gothic';-inkscape-font-specification:'League Gothic, Normal';text-align:end;letter-spacing:0px;word-spacing:0px;writing-mode:lr-tb;text-anchor:end;fill:#ff9900;fill-opacity:1;stroke:none;stroke-width:1px;stroke-linecap:butt;stroke-linejoin:miter;stroke-opacity:1"
       xml:space="preserve"><tspan
         id="tspan3766"
         y="559.29175"
         x="211.11523">100</tspan></text>
    <g
       class="btnSettings"
       id="g6037"
       transform="translate(-650,311.99959)">
      <path
         id="path3770"
         d="m 1071,100.36261 c 8.31,0 15,6.69 15,15 0,8.31 -6.69,15 -15,15 l -20,0 -25,0 -15,0 0,-15 0,-15 15,0 25,0 20,0 z"
         style="fill:#ffcc66;fill-opacity:1;stroke:none;stroke-width:0.35433072;stroke-linecap:butt;stroke-miterlimit:4;stroke-dasharray:none;stroke-dashoffset:0;stroke-opacity:1" />
      <text
         xml:space="preserve"
         style="font-style:normal;font-variant:normal;font-weight:normal;font-stretch:normal;font-size:16.25px;line-height:125%;font-family:'League Gothic';-inkscape-font-specification:'League Gothic';text-align:end;letter-spacing:0px;word-spacing:0px;text-anchor:end;fill:#000000;fill-opacity:1;stroke:none;stroke-width:1px;stroke-linecap:butt;stroke-linejoin:miter;stroke-opacity:1"
         x="1071.2205"
         y="126.2326"
         id="text3772"><tspan
           x="1071.2205"
           y="126.2326"
           id="tspan3774">SETTINGS</tspan></text>
    </g>
    <text
       transform="matrix(0,-1,1,0,0,0)"
       id="text3871"
       y="352.87"
       x="-416.16949"
       style="font-style:normal;font-variant:normal;font-weight:normal;font-stretch:normal;font-size:16.25px;line-height:125%;font-family:'League Gothic';-inkscape-font-specification:'League Gothic';text-align:end;letter-spacing:0px;word-spacing:0px;text-anchor:end;fill:#000000;fill-opacity:1;stroke:none;stroke-width:1px;stroke-linecap:butt;stroke-linejoin:miter;stroke-opacity:1"
       xml:space="preserve"><tspan
         id="tspan3873"
         y="352.87"
         x="-416.16949">MONITORING</tspan></text>
    <rect
       style="fill:#9999ff;fill-opacity:1;stroke:none;stroke-width:0.35433072;stroke-linecap:butt;stroke-miterlimit:4;stroke-dasharray:none;stroke-dashoffset:0;stroke-opacity:1"
       id="rect3881"
       width="75"
       height="30"
       x="203"
       y="514.36218" />
    <text
       id="text3883"
       y="540.36218"
       x="274.22046"
       style="font-style:normal;font-variant:normal;font-weight:normal;font-stretch:normal;font-size:16.25px;line-height:125%;font-family:'League Gothic';-inkscape-font-specification:'League Gothic';text-align:end;letter-spacing:0px;word-spacing:0px;text-anchor:end;fill:#000000;fill-opacity:1;stroke:none;stroke-width:1px;stroke-linecap:butt;stroke-linejoin:miter;stroke-opacity:1"
       xml:space="preserve"><tspan
         id="tspan3885"
         y="540.36218"
         x="274.22046">VALVE</tspan></text>
    <g
       class="btnOff"
       id="g6282"
       transform="translate(-650,447.99959)">
      <path
         style="fill:#ffcc66;fill-opacity:1;stroke:none;stroke-width:0.35433072;stroke-linecap:butt;stroke-miterlimit:4;stroke-dasharray:none;stroke-dashoffset:0;stroke-opacity:1"
         d="m 1071,66.362602 c 8.31,0 15,6.69 15,15 0,8.31 -6.69,15 -15,15 l -20,0 -25,0 -15,0 0,-15 0,-15 15,0 25,0 20,0 z"
         id="path3889" />
      <text
         id="text3891"
         y="92.362602"
         x="1071.2205"
         style="font-style:normal;font-variant:normal;font-weight:normal;font-stretch:normal;font-size:16.25px;line-height:125%;font-family:'League Gothic';-inkscape-font-specification:'League Gothic';text-align:end;letter-spacing:0px;word-spacing:0px;text-anchor:end;fill:#000000;fill-opacity:1;stroke:none;stroke-width:1px;stroke-linecap:butt;stroke-linejoin:miter;stroke-opacity:1"
         xml:space="preserve"><tspan
           id="tspan3893"
           y="92.362602"
           x="1071.2205">OFF</tspan></text>
    </g>
    <g
       class="btnOn"
       transform="translate(-991,379.99959)"
       id="g6280">
      <rect
         style="fill:#ffcc66;fill-opacity:1;stroke:none;stroke-width:0.35433072;stroke-linecap:butt;stroke-miterlimit:4;stroke-dasharray:none;stroke-dashoffset:0;stroke-opacity:1"
         id="rect3895"
         width="75"
         height="30"
         x="1273"
         y="134.36261" />
      <text
         id="text3897"
         y="160.36261"
         x="1344.2205"
         style="font-style:normal;font-variant:normal;font-weight:normal;font-stretch:normal;font-size:16.25px;line-height:125%;font-family:'League Gothic';-inkscape-font-specification:'League Gothic';text-align:end;letter-spacing:0px;word-spacing:0px;text-anchor:end;fill:#000000;fill-opacity:1;stroke:none;stroke-width:1px;stroke-linecap:butt;stroke-linejoin:miter;stroke-opacity:1"
         xml:space="preserve"><tspan
           id="tspan3899"
           y="160.36261"
           x="1344.2205">ON</tspan></text>
    </g>
  </g>
</svg>
