<?xml-stylesheet type="text/css" href="svg.css"?><svg xmlns="http://www.w3.org/2000/svg" viewBox="0 0 312 234" height="66" width="88"><g transform="translate(-124 -395.36218)"><rect width="75" height="98" x="124" y="514.4" style="fill:#c66;stroke-width:0.35433072"/><rect width="105" height="13" x="282" y="395.4" style="fill:#c66;stroke-width:0.35433072"/><rect y="616.4" x="124" height="13" width="75" style="fill:#c66;stroke-width:0.35433072"/><path d="m147.5 395.4a23.5 23.5 0 0 0-1.7 0.1 23.5 23.5 0 0 0-2.3 0.3 23.5 23.5 0 0 0-2.3 0.5 23.5 23.5 0 0 0-2.2 0.7 23.5 23.5 0 0 0-2.1 1 23.5 23.5 0 0 0-2 1.2 23.5 23.5 0 0 0-1.9 1.4 23.5 23.5 0 0 0-1.8 1.6 23.5 23.5 0 0 0-1.6 1.7 23.5 23.5 0 0 0-1.4 1.9 23.5 23.5 0 0 0-1.2 2 23.5 23.5 0 0 0-1 2.1 23.5 23.5 0 0 0-0.8 2.2 23.5 23.5 0 0 0-0.6 2.3 23.5 23.5 0 0 0-0.4 2.3 23.5 23.5 0 0 0-0.1 2.3l0 23.5 23.5 0 51.5 0 0-22.2a11.7 11.8 0 0 1 0.1-1.2 11.7 11.8 0 0 1 0.2-1.2 11.7 11.8 0 0 1 0.3-1.1 11.7 11.8 0 0 1 0.4-1.1 11.7 11.8 0 0 1 0.5-1.1 11.7 11.8 0 0 1 0.6-1 11.7 11.8 0 0 1 0.7-0.9 11.7 11.8 0 0 1 0.8-0.9 11.7 11.8 0 0 1 0.9-0.8 11.7 11.8 0 0 1 1-0.7 11.7 11.8 0 0 1 1-0.6 11.7 11.8 0 0 1 1.1-0.5 11.7 11.8 0 0 1 1.1-0.4 11.7 11.8 0 0 1 1.1-0.3 11.7 11.8 0 0 1 1.2-0.1 11.7 11.8 0 0 1 0.8 0l67.3 0 0-13-130.5 0z" style="fill:#c66;stroke-width:0.35433072"/><path d="m423 395.4c0 4.3 0 8.7 0 13l6.5 0c3.6 0 6.5-2.9 6.5-6.5 0-3.6-2.9-6.5-6.5-6.5z" style="fill:#c66;stroke-width:0.35433072"/><path d="m423 616.4c0 4.3 0 8.7 0 13l6.5 0c3.6 0 6.5-2.9 6.5-6.5 0-3.6-2.9-6.5-6.5-6.5z" style="fill:#c66;stroke-width:0.35433072"/><rect width="109" height="13" x="203" y="616.4" style="fill:#c66;stroke-width:0.35433072"/><g class="btnWater" transform="translate(-650 379.99959)"><rect width="75" height="30" x="774" y="66.4" style="fill:#f90;stroke-width:0.35433072"/><text y="92.4" x="845.3" style="-inkscape-font-specification:'League Gothic';font-family:'League Gothic';font-size:16.25px;letter-spacing:0px;line-height:125%;stroke-width:1px;text-align:end;text-anchor:end;word-spacing:0px"><tspan y="92.4" x="845.3">  WATER</tspan></text></g><text class="txtFlow" y="475.1" x="323.8" style="-inkscape-font-specification:'League Gothic';fill:#f96;font-family:'League Gothic';font-size:36.25px;letter-spacing:0px;line-height:125%;stroke-width:1px;text-align:end;text-anchor:end;word-spacing:0px"><tspan y="475.1" x="323.8">  99.9</tspan></text><rect y="446.4" x="203" height="30" width="75" style="fill:#99f;stroke-width:0.35433072"/><text x="419.6" y="407.6" style="-inkscape-font-specification:'League Gothic';fill:#f90;font-family:'League Gothic';font-size:16.25px;letter-spacing:0px;line-height:125%;stroke-width:1px;text-align:end;text-anchor:end;word-spacing:0px"><tspan x="419.6" y="407.6">  WATER</tspan></text><text y="628.6" x="419.6" style="-inkscape-font-specification:'League Gothic';fill:#f90;font-family:'League Gothic';font-size:16.25px;letter-spacing:0px;line-height:125%;stroke-width:1px;text-align:end;text-anchor:end;word-spacing:0px"><tspan y="628.6" x="419.6">  HOME AUTOMATION 1.00</tspan></text><g class="btnTemp" transform="translate(-650 379.99959)"><rect width="75" height="30" x="774" y="100.4" style="fill:#fc6;stroke-width:0.35433072"/><text x="845.2" y="126.4" style="-inkscape-font-specification:'League Gothic';font-family:'League Gothic';font-size:16.25px;letter-spacing:0px;line-height:125%;stroke-width:1px;text-align:end;text-anchor:end;word-spacing:0px"><tspan x="845.2" y="126.4">  TEMP</tspan></text></g><text x="274.2" y="472.4" style="-inkscape-font-specification:'League Gothic';font-family:'League Gothic';font-size:16.25px;letter-spacing:0px;line-height:125%;stroke-width:1px;text-align:end;text-anchor:end;word-spacing:0px"><tspan x="274.2" y="472.4">  FLOW</tspan></text><rect width="30" height="98" x="327" y="412.4" style="fill:#99f;stroke-width:0.35433072"/><g class="btnEnable" transform="translate(-650 379.99959)"><path d="m1071 66.4c8.3 0 15 6.7 15 15 0 8.3-6.7 15-15 15l-20 0-25 0-15 0 0-15 0-15 15 0 25 0 20 0z" style="fill:#fc6;stroke-width:0.35433072"/><text x="1071.2" y="92.4" style="-inkscape-font-specification:'League Gothic';font-family:'League Gothic';font-size:16.25px;letter-spacing:0px;line-height:125%;stroke-width:1px;text-align:end;text-anchor:end;word-spacing:0px"><tspan x="1071.2" y="92.4">  ENABLE</tspan></text></g><g class="btnDisable" transform="translate(-650 379.99959)"><path d="m1071 100.4c8.3 0 15 6.7 15 15 0 8.3-6.7 15-15 15l-20 0-25 0-15 0 0-15 0-15 15 0 25 0 20 0z" style="fill:#fc6;stroke-width:0.35433072"/><text y="126.2" x="1071.2" style="-inkscape-font-specification:'League Gothic';font-family:'League Gothic';font-size:16.25px;letter-spacing:0px;line-height:125%;stroke-width:1px;text-align:end;text-anchor:end;word-spacing:0px"><tspan y="126.2" x="1071.2">  DISABLE</tspan></text></g><rect y="611.4" x="203" height="1" width="233" style="fill:#f90;stroke-width:0.35433072"/><rect y="551.4" x="203" height="1" width="233" style="fill:#f90;stroke-width:0.35433072"/><rect width="233" height="1" x="203" y="596.4" style="fill:#f90;stroke-width:0.35433072"/><rect y="581.4" x="203" height="1" width="233" style="fill:#f90;stroke-width:0.35433072"/><rect width="233" height="1" x="203" y="566.4" style="fill:#f90;stroke-width:0.35433072"/><text x="208.9" y="604.3" style="-inkscape-font-specification:'League Gothic, Normal';fill:#f90;font-family:'League Gothic';font-size:8.75px;letter-spacing:0px;line-height:125%;stroke-width:1px;text-align:end;text-anchor:end;word-spacing:0px"><tspan x="208.9" y="604.3">  25</tspan></text><text y="589.3" x="208.8" style="-inkscape-font-specification:'League Gothic, Normal';fill:#f90;font-family:'League Gothic';font-size:8.75px;letter-spacing:0px;line-height:125%;stroke-width:1px;text-align:end;text-anchor:end;word-spacing:0px"><tspan y="589.3" x="208.8">  50</tspan></text><text x="208.5" y="574.3" style="-inkscape-font-specification:'League Gothic, Normal';fill:#f90;font-family:'League Gothic';font-size:8.75px;letter-spacing:0px;line-height:125%;stroke-width:1px;text-align:end;text-anchor:end;word-spacing:0px"><tspan x="208.5" y="574.3">  75</tspan></text><text y="559.3" x="211.1" style="-inkscape-font-specification:'League Gothic, Normal';fill:#f90;font-family:'League Gothic';font-size:8.75px;letter-spacing:0px;line-height:125%;stroke-width:1px;text-align:end;text-anchor:end;word-spacing:0px"><tspan y="559.3" x="211.1">  100</tspan></text><g class="btnSettings" transform="translate(-650 311.99959)"><path d="m1071 100.4c8.3 0 15 6.7 15 15 0 8.3-6.7 15-15 15l-20 0-25 0-15 0 0-15 0-15 15 0 25 0 20 0z" style="fill:#fc6;stroke-width:0.35433072"/><text x="1071.2" y="126.2" style="-inkscape-font-specification:'League Gothic';font-family:'League Gothic';font-size:16.25px;letter-spacing:0px;line-height:125%;stroke-width:1px;text-align:end;text-anchor:end;word-spacing:0px"><tspan x="1071.2" y="126.2">  SETTINGS</tspan></text></g><text transform="matrix(0 -1 1 0 0 0)" y="352.9" x="-416.2" style="-inkscape-font-specification:'League Gothic';font-family:'League Gothic';font-size:16.25px;letter-spacing:0px;line-height:125%;stroke-width:1px;text-align:end;text-anchor:end;word-spacing:0px"><tspan y="352.9" x="-416.2">  MONITORING</tspan></text><rect width="75" height="30" x="203" y="514.4" style="fill:#99f;stroke-width:0.35433072"/><text y="540.4" x="274.2" style="-inkscape-font-specification:'League Gothic';font-family:'League Gothic';font-size:16.25px;letter-spacing:0px;line-height:125%;stroke-width:1px;text-align:end;text-anchor:end;word-spacing:0px"><tspan y="540.4" x="274.2">  VALVE</tspan></text><g class="btnOff" transform="translate(-650 447.99959)"><path d="m1071 66.4c8.3 0 15 6.7 15 15 0 8.3-6.7 15-15 15l-20 0-25 0-15 0 0-15 0-15 15 0 25 0 20 0z" style="fill:#fc6;stroke-width:0.35433072"/><text y="92.4" x="1071.2" style="-inkscape-font-specification:'League Gothic';font-family:'League Gothic';font-size:16.25px;letter-spacing:0px;line-height:125%;stroke-width:1px;text-align:end;text-anchor:end;word-spacing:0px"><tspan y="92.4" x="1071.2">  OFF</tspan></text></g><g class="btnOn" transform="translate(-991 379.99959)"><rect width="75" height="30" x="1273" y="134.4" style="fill:#fc6;stroke-width:0.35433072"/><text y="160.4" x="1344.2" style="-inkscape-font-specification:'League Gothic';font-family:'League Gothic';font-size:16.25px;letter-spacing:0px;line-height:125%;stroke-width:1px;text-align:end;text-anchor:end;word-spacing:0px"><tspan y="160.4" x="1344.2">  ON</tspan></text></g></g></svg>
